<?xml version="1.0" standalone="no"?>
<!DOCTYPE svg PUBLIC "-//W3C//DTD SVG 1.1//EN" "http://www.w3.org/Graphics/SVG/1.1/DTD/svg11.dtd" >
<svg xmlns="http://www.w3.org/2000/svg">
<metadata></metadata>
<defs>
<font id="mf_kill_the_lightsregular" horiz-adv-x="1255" >
<font-face units-per-em="2048" ascent="1536" descent="-512" />
<missing-glyph horiz-adv-x="1024" />
<glyph unicode="&#xfb01;" horiz-adv-x="1056" d="M70 2v1298l4 19q23 57 62.5 102t92.5 74t113.5 39t120.5 -2q61 -12 115.5 -46t93.5 -85q80 -109 67 -240l-6 -51h-100l4 61q4 43 -8.5 87.5t-38.5 80.5q-27 35 -66 58.5t-82 34.5q-88 16 -163 -25q-72 -41 -107 -117v-479h682v205h102v-1012h-102v705h-682v-707h-102z M786 1313q0 51 35 86t84 35t84 -35t35 -86q0 -49 -35 -84t-84 -35t-84 35t-35 84z" />
<glyph unicode="&#xfb02;" horiz-adv-x="1011" d="M70 2v1298l4 19q23 57 62.5 102t92.5 74t113.5 39t120.5 -2q61 -12 115.5 -46t93.5 -85q80 -109 67 -240l-6 -51h-100l4 61q4 43 -8.5 87.5t-38.5 80.5q-27 35 -66 58.5t-82 34.5q-88 16 -163 -25q-72 -41 -107 -117v-479h653v725h103v-1532h-103v705h-653v-707h-102z " />
<glyph unicode="&#xfb03;" horiz-adv-x="1808" d="M70 2v1298l4 19q23 57 62.5 102t92.5 74t113.5 39t120.5 -2q61 -12 115.5 -46t93.5 -85q80 -109 67 -240l-6 -51h-100l4 61q4 43 -8.5 87.5t-38.5 80.5q-27 35 -66 58.5t-82 34.5q-88 16 -163 -25q-72 -41 -107 -117v-479h649v489l4 19q23 57 63 102t93 74t113.5 39 t119.5 -2q61 -12 115.5 -46t93.5 -85q80 -109 68 -240l-6 -51h-101l5 61q4 43 -8.5 87.5t-39.5 80.5q-27 35 -65.5 58.5t-81.5 34.5q-88 16 -164 -25q-71 -41 -106 -117v-479h682v205h102v-1012h-102v705h-682v-707h-103v707h-649v-707h-102zM1538 1313q0 51 35 86t84 35 t84 -35t35 -86q0 -49 -35 -84t-84 -35t-84 35t-35 84z" />
<glyph unicode="&#xfb04;" horiz-adv-x="1763" d="M70 2v1298l4 19q23 57 62.5 102t92.5 74t113.5 39t120.5 -2q61 -12 115.5 -46t93.5 -85q80 -109 67 -240l-6 -51h-100l4 61q4 43 -8.5 87.5t-38.5 80.5q-27 35 -66 58.5t-82 34.5q-88 16 -163 -25q-72 -41 -107 -117v-479h649v489l4 19q23 57 63 102t93 74t113.5 39 t119.5 -2q61 -12 115.5 -46t93.5 -85q80 -109 68 -240l-6 -51h-101l5 61q4 43 -8.5 87.5t-39.5 80.5q-27 35 -65.5 58.5t-81.5 34.5q-88 16 -164 -25q-71 -41 -106 -117v-479h653v725h102v-1532h-102v705h-653v-707h-103v707h-649v-707h-102z" />
<glyph horiz-adv-x="0" />
<glyph unicode="&#xd;" horiz-adv-x="1024" />
<glyph unicode=" "  horiz-adv-x="1024" />
<glyph unicode="&#x09;" horiz-adv-x="1024" />
<glyph unicode="&#xa0;" horiz-adv-x="1024" />
<glyph unicode="!" horiz-adv-x="305" d="M35 125q0 49 34.5 84t84.5 35q49 0 83.5 -35t34.5 -84q0 -51 -34.5 -86t-83.5 -35t-84 35t-35 86zM102 422v1012h103v-1012h-103z" />
<glyph unicode="&#x22;" horiz-adv-x="468" d="M74 782v500h102v-500h-102zM289 782v500h102v-500h-102z" />
<glyph unicode="#" horiz-adv-x="1015" d="M20 512v102h297l19 199h-316v102h326l51 519h103l-51 -519h157l49 519h103l-49 -519h286v-102h-297l-18 -199h315v-102h-325l-52 -518h-102l49 518h-155l-52 -518h-100l49 518h-287zM420 614h155l21 199h-158z" />
<glyph unicode="$" horiz-adv-x="1017" d="M43 344h102q-4 -41 20.5 -87t72.5 -79q41 -31 99 -50t122 -26v578q-66 35 -131.5 70.5t-120.5 78.5q-76 59 -117 123t-47 129q-4 70 31 136.5t104 115.5q55 39 128 62.5t153 29.5v95h102v-95q78 -6 150.5 -29.5t128.5 -62.5q70 -49 105.5 -115.5t29.5 -136.5h-103 q4 41 -19.5 87t-70.5 81q-43 29 -101 48.5t-120 25.5v-578q66 -35 130.5 -70.5t119.5 -78.5q152 -117 164 -252q6 -70 -30 -136.5t-105 -113.5q-55 -41 -128 -64.5t-151 -29.5v-98h-102v98q-80 6 -153 29.5t-128 64.5q-70 47 -104.5 113.5t-30.5 136.5zM145 1090 q4 -43 36 -89.5t89 -89.5q41 -33 88.5 -61.5t100.5 -54.5v528q-66 -6 -123 -25.5t-98 -48.5q-47 -35 -72 -77t-21 -82zM561 102q61 6 119.5 25.5t101.5 50.5q47 33 71 75t19 83q-4 43 -35.5 89t-86.5 91q-41 31 -89.5 58.5t-99.5 54.5v-527z" />
<glyph unicode="%" horiz-adv-x="978" d="M41 1133q0 61 15.5 113t43 91t65.5 61.5t81 22.5t79.5 -22.5t64.5 -61.5t44.5 -91t16.5 -113q0 -59 -16.5 -111.5t-44.5 -91.5t-64.5 -61.5t-79.5 -22.5t-81 22.5t-65.5 61.5t-43 91t-15.5 112zM143 1133q0 -82 33 -133.5t70 -51.5q35 0 68.5 51.5t33.5 133.5 q0 84 -33.5 135t-68.5 51q-37 0 -70 -51t-33 -135zM252 23l377 1411l98 -27l-377 -1411zM528 297q0 59 15.5 111.5t43 91.5t65.5 61.5t81 22.5t80 -22.5t64.5 -61.5t44 -91.5t16.5 -111.5q0 -61 -16.5 -113.5t-44 -91.5t-64.5 -61.5t-80 -22.5t-81 22.5t-65.5 61.5t-43 91.5 t-15.5 113.5zM631 297q0 -84 32.5 -135t69.5 -51t70 51t33 135q0 82 -33 133t-70 51t-69.5 -51t-32.5 -133z" />
<glyph unicode="&#x26;" horiz-adv-x="864" d="M70.5 431q13.5 87 60.5 161q51 74 127 119l4 2l-4 4q-76 43 -127 119q-47 72 -60.5 158.5t15.5 170.5q25 80 88 148q29 33 65.5 55.5t77.5 38.5q74 27 155 20.5t151 -45.5t121 -111.5t77 -205.5h-98q-23 94 -61.5 146.5t-88.5 80.5q-51 29 -109 33t-112 -14 q-59 -23 -104 -70t-66 -106q-18 -59 -9 -124t44 -118t92.5 -88t122.5 -41v-102q-66 -4 -123 -39t-92 -88t-44 -118t9 -124q20 -61 65.5 -107.5t104.5 -68.5q53 -20 111.5 -16.5t109.5 32.5q49 29 84 74t48 98v160h-209v102h260l51 -51v-227q-18 -78 -66.5 -142.5 t-117.5 -103.5q-87 -45 -181 -45q-63 0 -125 22q-84 29 -143 95q-63 63 -88 145q-29 84 -15.5 171z" />
<glyph unicode="'" horiz-adv-x="260" d="M74 782v500h102v-500h-102z" />
<glyph unicode="(" horiz-adv-x="718" d="M49.5 494.5q-14.5 152.5 20.5 300.5q25 102 74 196t118 176q72 84 157 147.5t181 104.5l47 19l41 -95l-47 -18q-86 -37 -163 -94t-137 -129t-104 -156t-67 -176q-31 -129 -18 -266q12 -135 67 -258q55 -121 150 -221q96 -98 213 -162l45 -23l-47 -90l-45 23 q-135 72 -241 182.5t-167 247.5q-63 139 -77.5 291.5z" />
<glyph unicode=")" horiz-adv-x="718" d="M31 1343l41 95l47 -19q96 -41 181 -104.5t157 -147.5q70 -82 119 -176t73 -196q35 -147 20.5 -300t-77.5 -292q-61 -137 -167 -248t-241 -182l-45 -23l-47 90l45 23q117 63 213 162q94 100 150 221q55 123 67 258q12 137 -18 266q-23 92 -67 176t-104.5 156t-137 129 t-162.5 94z" />
<glyph unicode="*" horiz-adv-x="718" d="M61 666l232 278l-232 279l78 65l168 -203v181h103v-181l170 203l77 -65l-231 -279l231 -278l-77 -66l-170 203v-182h-103v182l-168 -203z" />
<glyph unicode="+" horiz-adv-x="768" d="M8 596v102h324v318h102v-318h326v-102h-326v-332h-102v332h-324z" />
<glyph unicode="," horiz-adv-x="296" d="M49 123q0 45 32 75.5t75 30.5t73.5 -30.5t30.5 -75.5l-96 -402l-98 27l71 270q-37 8 -62.5 37t-25.5 68z" />
<glyph unicode="-" horiz-adv-x="634" d="M74 516v102h485v-102h-485z" />
<glyph unicode="." horiz-adv-x="229" d="M51 90q0 27 18.5 46.5t43.5 19.5q27 0 45 -19.5t18 -46.5q0 -25 -18.5 -43t-44.5 -18q-25 0 -43.5 18.5t-18.5 42.5z" />
<glyph unicode="/" horiz-adv-x="718" d="M6 61l617 1323l92 -43l-617 -1323z" />
<glyph unicode="0" horiz-adv-x="1124" d="M51 715q0 141 37 269t107 230q74 102 161 156q94 59 207 60q111 0 205 -60q88 -53 162 -156q70 -102 106.5 -230t36.5 -269t-37 -269.5t-106 -228.5q-70 -100 -162 -156q-99 -61 -205 -61q-109 0 -207 61q-92 55 -161 156q-70 100 -107 228t-37 270zM154 715 q0 -125 32.5 -237.5t92.5 -203.5q59 -84 131.5 -128t152.5 -44q78 0 150.5 44t132.5 128q59 90 92 203t33 238q0 127 -33 239.5t-92 200.5q-59 86 -132 129t-151 43q-80 0 -152.5 -43t-131.5 -129q-59 -88 -92 -200.5t-33 -239.5z" />
<glyph unicode="1" horiz-adv-x="407" d="M2 1253l248 170h80v-1421h-103v1282l-168 -117z" />
<glyph unicode="2" horiz-adv-x="854" d="M62 1116.5q12 71.5 47 130.5t92 103.5t125 64.5q66 20 137.5 14t134.5 -38q63 -33 110.5 -86.5t71.5 -118.5q31 -88 23 -169t-27 -140q-23 -66 -56.5 -128.5t-80.5 -130.5q-92 -137 -192.5 -265t-210.5 -251h546v-102h-704v88q133 135 253 281.5t224 304.5 q41 63 72.5 119.5t50.5 115.5q45 133 6 242q-39 100 -133 147q-45 23 -97.5 28t-99.5 -9q-49 -14 -90 -46t-67 -75q-27 -45 -34 -107.5t3 -111.5h-100q-16 68 -4 139.5z" />
<glyph unicode="3" horiz-adv-x="860" d="M43 369h100l13 -52q12 -55 47 -102t86 -74q51 -29 109.5 -34t111.5 16q59 23 104 70t66 106q18 59 9 123.5t-44 118.5q-35 53 -93 88t-122 41v100q63 6 121.5 41t93.5 88t44 117.5t-9 124.5q-20 59 -65.5 106t-104.5 70q-53 18 -111.5 14t-109.5 -33t-86 -74.5 t-47 -101.5l-13 -51h-100q27 133 77 207t120 111q70 39 150.5 45t154.5 -21q80 -29 143 -94q63 -63 88 -148q27 -82 14.5 -170t-61.5 -159q-23 -35 -54.5 -66t-70.5 -53l-4 -4q2 0 4 -2q78 -47 125 -119q49 -72 61.5 -160t-14.5 -170q-25 -84 -88 -147q-63 -66 -143 -94 q-62 -23 -125 -23q-96 0 -180 47q-70 37 -119 101.5t-66 142.5z" />
<glyph unicode="4" horiz-adv-x="919" d="M2 479v84l639 869h92v-848h148v-105h-148v-473h-102v473h-629zM145 584h486v659z" />
<glyph unicode="5" horiz-adv-x="989" d="M59 227l82 64l31 -41q82 -109 209 -141q125 -33 242 28q57 29 102 78t74 111q29 61 38 130.5t-1 139.5q-23 121 -99 209q-74 88 -182 119q-106 29 -209 -9q-106 -39 -174 -131h-92v641h856v-102h-754v-383q57 45 129 72q137 47 273 10q66 -18 125 -57t106 -93 q96 -111 121 -260q14 -84 3 -169t-48 -162q-35 -78 -93.5 -137.5t-129.5 -96.5q-47 -27 -99.5 -39t-105.5 -12q-55 0 -107 12q-162 41 -266 180z" />
<glyph unicode="6" horiz-adv-x="1077" d="M54 556q-1 77 9 151q16 143 80 268q57 117 148.5 210t206.5 154q117 59 244.5 82t256.5 4l-2 -100q-113 16 -231.5 -4.5t-220.5 -73.5q-100 -53 -180 -134t-132 -183q-14 -31 -25 -61.5t-22 -65.5q4 6 10.5 12t12.5 12q68 70 156 106t184 36q98 0 186 -36t156 -106 q70 -68 105.5 -154.5t35.5 -185.5q0 -98 -35.5 -185t-105.5 -157q-68 -68 -156 -104.5t-186 -36.5q-96 0 -184.5 37t-155.5 104q-55 55 -89 123t-49.5 139.5t-16.5 148.5zM170 487q0 -80 29.5 -148.5t81 -120.5t121 -82t147.5 -30q80 0 148.5 30t120.5 82t82 121t30 148 q0 78 -30 148t-82 121t-120.5 80.5t-148.5 29.5q-78 0 -147.5 -29.5t-121 -80.5t-81 -121t-29.5 -148z" />
<glyph unicode="7" horiz-adv-x="940" d="M16 1331v103h914l-647 -1430h-115l604 1327h-756z" />
<glyph unicode="8" horiz-adv-x="960" d="M55 385q0 78 33 147.5t94 122.5q39 35 90 62q-51 27 -90 61q-61 53 -94 124t-33 149t33 148.5t94 123.5q59 53 136 81t163 28q84 0 161 -28t136 -81q61 -53 94 -124t33 -148q0 -78 -32.5 -149t-94.5 -124q-39 -35 -90 -61q51 -27 90 -62q61 -53 94 -122.5t33 -147.5 q0 -162 -127 -272q-59 -53 -136 -82t-161 -29q-86 0 -162.5 28.5t-136.5 82.5q-127 111 -127 272zM158 385q0 -59 25.5 -109.5t69.5 -89.5t102 -60.5t126 -21.5q66 0 124.5 21.5t102.5 60.5t69.5 89.5t25.5 109.5q0 57 -25.5 108.5t-69.5 89.5t-102.5 59.5t-124.5 21.5 q-68 0 -126 -21.5t-102 -59.5t-69.5 -89.5t-25.5 -108.5zM158 1051q0 -57 25.5 -108.5t69.5 -89.5t102.5 -59.5t125.5 -21.5q66 0 124.5 21.5t102.5 59.5t69.5 89t25.5 109q0 57 -25.5 108t-69.5 89t-102.5 59.5t-124.5 21.5q-68 0 -126 -21.5t-102 -59.5t-69.5 -89 t-25.5 -108z" />
<glyph unicode="9" horiz-adv-x="1075" d="M43 967q0 98 36 185t105 157q68 68 156 104.5t186 36.5q96 0 184.5 -37t155.5 -104q55 -55 89 -123t49.5 -139.5t15.5 -148.5t-8 -150q-16 -143 -80 -269q-57 -117 -148.5 -210t-205.5 -154q-117 -59 -245 -82t-257 -4l2 100q113 -16 231.5 4.5t220.5 73.5 q100 53 180.5 134t131.5 183q14 31 25.5 61.5t21.5 65.5q-6 -8 -23 -24q-68 -70 -155.5 -106t-184.5 -36q-98 0 -186 36t-156 106q-70 68 -105.5 154.5t-35.5 185.5zM145 967q0 -78 30 -147.5t82 -121t120.5 -81t148.5 -29.5q78 0 147.5 29.5t121 81t81 121t29.5 147.5 q0 80 -29.5 148.5t-81 120.5t-121 82t-147.5 30q-80 0 -148.5 -30t-120.5 -82t-82 -120.5t-30 -148.5z" />
<glyph unicode=":" horiz-adv-x="296" d="M59 102q0 37 27 66t61 29q37 0 64 -29t27 -66q0 -35 -27 -61.5t-64 -26.5q-35 0 -61.5 27t-26.5 61zM61 788q0 37 27 66t62 29q37 0 63.5 -29t26.5 -66q0 -35 -27 -61.5t-63 -26.5q-35 0 -62 27t-27 61z" />
<glyph unicode=";" horiz-adv-x="278" d="M39 123q0 -39 25.5 -67.5t62.5 -37.5l-72 -270l99 -27l96 402q0 45 -31 75.5t-74 30.5t-74.5 -30.5t-31.5 -75.5zM51 788q0 37 26.5 66t61.5 29q37 0 63.5 -29t26.5 -66q0 -35 -26.5 -61.5t-63.5 -26.5q-35 0 -61.5 27t-26.5 61z" />
<glyph unicode="&#x3c;" horiz-adv-x="774" d="M2 596v84l700 479v-115l-581 -407l581 -406v-114z" />
<glyph unicode="=" horiz-adv-x="915" d="M74 508v102h823v-102h-823zM74 850v102h823v-102h-823z" />
<glyph unicode="&#x3e;" horiz-adv-x="772" d="M70 117v114l581 406l-581 407v115l700 -479v-84z" />
<glyph unicode="?" horiz-adv-x="686" d="M47 1075q-14 74 10.5 146.5t77.5 124.5q55 53 129 73.5t148 3.5q72 -16 130 -66t87 -120q27 -72 17.5 -147.5t-52.5 -137.5q-18 -27 -41 -48t-45 -44l-4 -2q-20 -18 -39 -36.5t-35 -41.5q-31 -39 -43 -88q-6 -25 -7 -52.5t-1 -53.5v-162h-103v162q0 31 1.5 63.5 t11.5 67.5q14 63 57 125q20 27 43 48t47 44l2 4q20 16 39 34.5t33 39.5q29 41 34 91t-12 97q-18 45 -57 79t-86 44t-97 -3t-85 -48t-52.5 -83t-7.5 -97l9 -68h-101zM201 125q0 -51 34.5 -86t83.5 -35t84 35t35 86q0 49 -34.5 84t-84.5 35q-49 0 -83.5 -35t-34.5 -84z" />
<glyph unicode="@" horiz-adv-x="1447" d="M58 715.5q1 95.5 26 187.5q23 92 68 172t106 146q59 66 134 110.5t157 71.5q80 25 164 28t168 -14q121 -25 223 -88q106 -68 180 -172q77 -113 100 -244q25 -139 -12 -270q-23 -76 -65.5 -138.5t-100.5 -107.5q-121 -92 -270 -86l-47 4v109q-98 -111 -238 -111 q-68 0 -129 29t-108 84q-96 109 -97 260q0 74 25 141.5t72 120.5q98 111 237 111t238 -111v113h102v-645q84 10 152 61q92 74 131 195q33 109 10 223q-10 53 -30.5 105.5t-53.5 97.5q-59 88 -151 143q-90 57 -189 76q-72 16 -143.5 12t-136.5 -24q-139 -43 -248 -154 q-53 -57 -91 -126t-59 -146q-23 -80 -22.5 -163t18.5 -161q27 -98 82 -182q27 -41 59.5 -77t69.5 -65q145 -115 340 -127q207 -10 391 103l45 26l54 -86l-45 -26q-195 -119 -410 -119h-20.5t-20.5 2q-111 6 -211 43t-186 103q-92 72 -154.5 169t-91.5 211q-23 90 -22 185.5z M420 686q0 -55 18.5 -104.5t50 -86t73.5 -58t89 -21.5t89 21.5t74 58t50.5 86t18.5 104.5t-18.5 104.5t-50.5 86t-74 58t-89 21.5t-89 -21.5t-73.5 -58t-50 -86t-18.5 -104.5z" />
<glyph unicode="A" horiz-adv-x="1146" d="M27 2l497 1428h97l499 -1428h-116l-199 578h-463l-199 -578h-116zM377 682h393l-197 573z" />
<glyph unicode="B" horiz-adv-x="1011" d="M74 -2v1425h53q98 2 197 2t198 -2q59 0 130 -8t139 -53q72 -47 114 -127q47 -88 47 -195q0 -51 -13 -101t-36 -93q-20 -41 -50 -73t-65 -54q-4 -2 -6 -4t-6 -4q4 -2 6 -4.5t6 -4.5q35 -23 65 -54.5t50 -72.5q23 -43 36 -92t13 -100q0 -106 -47 -197q-43 -80 -114 -127 q-68 -45 -138.5 -53t-130.5 -8q-49 -2 -98 -2h-100h-98.5t-98.5 2h-53zM178 98h172t172 2q53 0 108.5 6.5t102.5 36.5q51 35 82 90q16 33 25.5 72t9.5 76q0 39 -10.5 77t-26.5 70q-33 59 -80 88q-47 31 -102.5 37t-108.5 6h-344v-561zM178 762q86 1 172 1l172 -1q66 0 116 7 t95 36q47 29 80 88q16 33 26.5 70.5t10.5 76.5q0 37 -9.5 76t-25.5 72q-31 55 -82 90q-45 29 -96.5 36t-114.5 7q-86 2 -172 2h-172v-561z" />
<glyph unicode="C" horiz-adv-x="1204" d="M57 784q18 197 125 359q53 78 122 138t153 97q118 54 244 54q51 0 104 -9q176 -35 315 -163l37 -37l-70 -74l-38 35q-55 55 -123 90t-140 47q-46 9 -91 9q-100 0 -197 -44q-68 -33 -127.5 -83t-104.5 -118q-90 -137 -106 -311q-3 -31 -2 -61q0 -61 10 -122 q16 -91 55 -171q82 -164 228 -250q71 -40 151 -58q51 -11 101 -12q29 0 57 4q80 10 154.5 46t134.5 96l38 35l70 -74l-37 -35q-72 -70 -162 -114t-186 -56q-16 -2 -35 -3t-37 -1q-160 0 -301 82q-86 49 -153.5 126t-114.5 169q-45 95 -65 199q-13 69 -12 138q0 36 3 72z" />
<glyph unicode="D" horiz-adv-x="1144" d="M74 4v1421h438q43 0 90 -3t94 -15t94.5 -35.5t92.5 -64.5q92 -86 149 -236q29 -80 45.5 -172t16.5 -184t-16.5 -184.5t-45.5 -172.5q-57 -150 -149 -235q-45 -41 -92.5 -64.5t-94.5 -36t-94 -15.5t-90 -3h-438zM176 106h336q39 0 79 2.5t78 11.5t73.5 27.5t70.5 51.5 q76 69 123 194q27 72 41 154t14 168q0 84 -14 166t-41 153q-47 127 -123 197q-70 63 -145.5 77.5t-155.5 14.5h-336v-1217z" />
<glyph unicode="E" horiz-adv-x="993" d="M74 2v1425h913v-102h-811v-559h811v-102h-811v-560h811v-102h-913z" />
<glyph unicode="F" horiz-adv-x="1050" d="M74 2v1425h913v-102h-811v-559h811v-102h-811v-662h-102z" />
<glyph unicode="G" horiz-adv-x="1208" d="M55 780q18 199 125 359q53 80 123 140t152 97q116 54 238 54q54 0 110 -11q180 -31 315 -164l37 -34l-70 -74l-36 35q-57 53 -125 89t-140 48q-46 9 -91 9q-99 0 -195 -44q-139 -66 -234 -201q-90 -141 -106 -311q-3 -31 -3 -61q0 -61 11 -122q16 -91 57 -171 q39 -80 97.5 -145.5t130.5 -106.5q115 -68 242 -68q32 0 65 4q76 10 145.5 42t128.5 83v318h-454v102h557v-463l-17 -16q-72 -70 -161 -113t-185 -55q-18 -2 -37 -3t-35 -1q-162 0 -303 82q-86 49 -153.5 125t-112.5 170q-47 92 -65 197q-13 74 -13 147q0 32 2 63z" />
<glyph unicode="H" horiz-adv-x="1087" d="M74 -2v1429h102v-663h733v663h103v-1429h-103v664h-733v-664h-102z" />
<glyph unicode="I" horiz-adv-x="1009" d="M29 -4v102h426v1225h-426v102h952v-102h-424v-1225h424v-102h-952z" />
<glyph unicode="J" horiz-adv-x="876" d="M31 477l12 51h100l-12 -73q-8 -32 -8 -63q0 -35 9 -70q18 -66 61 -119q43 -51 106 -79q55 -24 114 -24h17q55 4 108.5 30t90.5 67q39 43 59 98q15 44 15 88q0 12 -1 23v1021h103v-1017q1 -11 1 -21q0 -67 -22 -130q-26 -73 -79 -130q-51 -59 -122 -92t-149 -37 q-6 -2 -20 -2q-86 0 -166 37t-135 102q-59 70 -81 161q-11 47 -11 92q0 44 10 87z" />
<glyph unicode="K" horiz-adv-x="997" d="M74 2v1428h102v-609l625 609h137l-715 -705l738 -723h-134l-651 625v-625h-102z" />
<glyph unicode="L" horiz-adv-x="989" d="M74 2v1430h102v-1328h813v-102h-915z" />
<glyph unicode="M" horiz-adv-x="1312" d="M74 2v1428h94l487 -725l490 725h94v-1428h-102v1215l-439 -631h-84l-438 631v-1215h-102z" />
<glyph unicode="N" horiz-adv-x="1312" d="M74 0v1432h92l971 -1235v1235h102v-1432h-92l-971 1233v-1233h-102z" />
<glyph unicode="O" d="M51 713q0 141 42 270t122 231q82 102 184 156q111 57 230 57q117 0 227 -57q102 -53 184 -156q80 -102 122 -231t42 -270t-42 -270.5t-122 -231.5q-82 -102 -184 -156q-110 -57 -227 -57q-119 0 -230 57q-102 53 -184 156q-80 102 -122 231t-42 271zM154 713 q0 -127 36.5 -239t101 -194.5t151.5 -131t186 -48.5q98 0 184 48.5t150.5 131t101.5 194.5t37 239t-37 238.5t-101.5 194.5t-150.5 131t-184 48t-185.5 -48t-152 -131t-101 -194.5t-36.5 -238.5z" />
<glyph unicode="P" horiz-adv-x="960" d="M74 -2v1429h51q100 2 199.5 2t197.5 -2q59 -2 130 -9t139 -52q69 -45 114 -129q47 -88 47 -195q0 -106 -47 -194q-43 -78 -117 -127q-66 -43 -136 -51t-130 -8h-346v-664h-102zM176 764q86 0 173 -1h58q58 0 115 1q66 0 116 7t95 36q51 33 80 88q37 68 37 147 q0 82 -35 148q-16 29 -35.5 51.5t-44.5 38.5q-47 29 -98 36t-115 9h-346v-561z" />
<glyph unicode="Q" horiz-adv-x="1308" d="M51 715q0 141 42 270t122 232q82 102 184 155q111 57 230 58q117 0 227 -58q102 -53 184 -155q80 -102 122 -231.5t42 -270.5t-42 -270.5t-122 -231.5l-8 -8l230 -207h-144l-157 133q-49 -43 -105 -74q-111 -57 -227 -57q-119 0 -230 57q-102 53 -184 156 q-80 102 -122 231t-42 271zM154 715q0 -127 36.5 -238.5t101 -194.5t152 -131.5t185.5 -48.5q72 0 137 27t121 74l-68 63l72 74l67 -66q66 86 105 199t39 242q0 127 -37 238.5t-101.5 194.5t-150.5 131t-184 48t-185.5 -48t-152 -131t-101 -194.5t-36.5 -238.5z" />
<glyph unicode="R" horiz-adv-x="1030" d="M74 18v1407h51q98 2 196 2t195 -2q59 0 129 -8t135 -51q74 -47 113 -127q47 -88 47 -192t-47 -193q-43 -78 -113 -125q-43 -27 -92 -39l289 -688h-113l-280 672q-16 -2 -34 -2t-34 -2h-340v-652h-102zM176 772h170t170 2q63 0 113.5 6t93.5 35q47 29 80 88q16 31 25.5 69 t9.5 75t-9.5 74.5t-25.5 70.5q-14 29 -34.5 50.5t-43.5 37.5q-45 29 -96 36t-113 7q-86 2 -170 2h-170v-553z" />
<glyph unicode="S" horiz-adv-x="1044" d="M55 344h103q-1 -6 0 -12q0 -36 20 -75q24 -46 72 -79q51 -37 122.5 -57.5t149.5 -20.5q76 0 147.5 20.5t125.5 57.5q47 33 71 75q20 36 20 71q0 6 -1 12q-4 43 -36 89t-87 91q-57 43 -126 80t-138 72q-72 37 -144.5 75.5t-134.5 85.5q-76 59 -117 123t-47 129v14 q0 63 31 123q35 66 104 115q66 45 152 69.5t180 24.5q92 0 178 -24.5t152 -69.5q70 -49 106 -115q30 -57 30 -117q0 -10 -1 -20h-102q1 6 1 12q0 36 -20 75q-24 46 -71 81q-53 35 -125 55.5t-148 20.5q-78 0 -149.5 -20.5t-122.5 -55.5q-48 -35 -72 -77q-21 -36 -20 -71v-11 q4 -43 35.5 -89.5t89.5 -89.5q55 -43 123.5 -79.5t138.5 -71.5q72 -37 144.5 -77t133.5 -87q152 -117 164 -252q1 -10 1 -20q0 -58 -30 -116q-36 -66 -106 -114q-66 -47 -152 -71.5t-178 -24.5q-94 0 -180 24.5t-152 71.5q-70 48 -104 114q-31 60 -31 121v15z" />
<glyph unicode="T" horiz-adv-x="989" d="M12 1325v102h965v-102h-430v-1327h-103v1327h-432z" />
<glyph unicode="U" horiz-adv-x="1034" d="M66 696q-2 169 -2 338.5t2 339.5v51h102v-51q-2 -170 -2 -339.5t2 -338.5q0 -94 8 -195.5t49 -193.5q20 -45 50 -82t65 -65q80 -61 174 -62h2q92 0 176 62q74 53 117 147q41 92 49 193.5t8 195.5q2 169 2 338.5t-2 339.5v51h103v-51q2 -170 2 -339.5t-2 -338.5 q0 -98 -9.5 -211.5t-58.5 -220.5q-53 -119 -147 -186q-111 -82 -238 -82h-2q-61 0 -121.5 21.5t-113.5 62.5q-94 68 -148 186q-47 104 -56 216t-9 214z" />
<glyph unicode="V" horiz-adv-x="1105" d="M27 1430h106l420 -1256l420 1256h106l-479 -1430h-96z" />
<glyph unicode="W" horiz-adv-x="1658" d="M47 1427h109l311 -1212l311 1212h99l311 -1212l315 1212h109l-375 -1423h-98l-312 1161l-309 -1161h-100z" />
<glyph unicode="X" horiz-adv-x="1306" d="M57 -23l533 736l-533 735h138l458 -647l459 647h137l-532 -735l532 -736h-137l-459 648l-458 -648h-138z" />
<glyph unicode="Y" horiz-adv-x="1236" d="M20 1448h123l475 -662l474 662h125l-547 -764v-686h-103v686z" />
<glyph unicode="Z" horiz-adv-x="1081" d="M27 -2l839 1327h-839v102h1028l-842 -1327h842v-102h-1028z" />
<glyph unicode="[" horiz-adv-x="530" d="M74 -229v1648h452v-102h-350v-1444h350v-102h-452z" />
<glyph unicode="\" horiz-adv-x="718" d="M4 1341l92 43l617 -1323l-92 -43z" />
<glyph unicode="]" horiz-adv-x="532" d="M4 -127h350v1444h-350v102h453v-1648h-453v102z" />
<glyph unicode="^" horiz-adv-x="1095" d="M27 668l479 700h84l479 -700h-115l-407 581l-406 -581h-114z" />
<glyph unicode="_" horiz-adv-x="1226" d="M74 -315h1077v-103h-1077v103z" />
<glyph unicode="`" horiz-adv-x="407" d="M12 1315l58 86l323 -219l-55 -84z" />
<glyph unicode="a" horiz-adv-x="1150" d="M49 508q0 102 39 194.5t111 163.5q72 72 164 111t194 39t194.5 -39t163.5 -111q31 -29 58 -67v219h102v-1020h-102v219q-27 -39 -58 -67q-72 -72 -164 -111t-194 -39t-194.5 39t-163.5 111q-72 72 -111 164t-39 194zM152 508q0 -84 31.5 -158t87 -129t129 -87t157.5 -32 t157.5 32t129 87t87.5 129t32 158t-32 157.5t-87.5 129t-129 87t-157.5 31.5t-157.5 -31.5t-129 -87t-87 -129t-31.5 -157.5z" />
<glyph unicode="b" horiz-adv-x="1112" d="M74 -2v1532h102v-731q27 39 57 67q72 72 164 111t195 39q102 0 194.5 -39t163.5 -111q72 -72 111 -164t39 -194t-39 -194.5t-111 -163.5q-72 -72 -164 -111t-194 -39t-194.5 39t-164.5 111q-31 29 -57 67v-219h-102zM186 508q0 -84 32 -158t87 -129t129 -87t158 -32 t157.5 32t129 87t87 129t31.5 158t-31.5 157.5t-87 129t-129 87t-157.5 31.5t-158 -31.5t-129 -87t-87 -129t-32 -157.5z" />
<glyph unicode="c" horiz-adv-x="985" d="M55 557q12 141 99 256q86 115 219 168q94 37 192 37q41 0 82 -6q141 -23 250 -115l41 -33l-68 -78l-39 33q-90 74 -200 92q-34 5 -67 5q-78 0 -152 -29q-106 -45 -176 -135q-33 -45 -53.5 -96.5t-24.5 -108.5q-2 -21 -2 -42q0 -101 49 -190q29 -53 73 -96t97 -72t115 -40 q36 -6 71 -6q26 0 51 3q125 12 219 95l39 32l68 -77l-41 -33q-57 -49 -128 -80t-146 -39q-14 -2 -28 -3t-28 -1q-127 0 -239 59q-137 70 -213 209q-63 112 -63 237q0 27 3 54z" />
<glyph unicode="d" horiz-adv-x="1114" d="M12 508q0 102 39 194.5t111 163.5q72 72 164 111t194 39t194.5 -39t164.5 -111q31 -29 57 -67v731h102v-1532h-102v219q-27 -39 -57 -67q-72 -72 -164 -111t-195 -39q-102 0 -194.5 39t-163.5 111q-72 72 -111 164t-39 194zM115 508q0 -84 31.5 -158t87 -129t129 -87 t157.5 -32t158 32t129 87t87 129t32 158t-32 157.5t-87 129t-129 87t-158 31.5t-157.5 -31.5t-129 -87t-87 -129t-31.5 -157.5z" />
<glyph unicode="e" horiz-adv-x="1026" d="M51 535q2 78 26.5 152.5t69.5 137.5q94 133 250 181q60 18 122 18q31 0 63 -4q96 -14 176 -62q80 -47 135 -125.5t74 -170.5l12 -62h-817q-4 -16 -6 -33.5t-2 -34.5v-11q0 -77 24 -147q26 -76 78 -134q59 -66 143 -103q41 -15 85 -25q31 -7 61 -7q13 0 26 1q86 2 170 46 q80 43 133 114l31 41l82 -61l-31 -41q-66 -90 -168 -144q-102 -53 -213 -57q-6 -2 -18 -2q-100 0 -199 41q-51 23 -97 55.5t-81 73.5q-66 72 -100 167q-30 85 -29 175v21zM195 702h653q-23 53 -59.5 96.5t-83.5 71.5q-85 50 -183 50q-51 0 -96 -13q-59 -16 -109.5 -53 t-87.5 -88q-10 -16 -18 -31.5t-16 -32.5z" />
<glyph unicode="f" horiz-adv-x="751" d="M70 2v1298l4 19q23 57 62.5 102t92.5 74t113 39q28 5 55 5q33 0 66 -7q61 -12 115.5 -46t93.5 -85q69 -94 69 -204q0 -18 -2 -36l-6 -51h-100l4 61q1 10 1 21q0 33 -10 66q-12 45 -38 81q-27 35 -66 58.5t-82 34.5q-25 4 -48 4q-61 0 -115 -29q-72 -41 -107 -117v-479 h567v-102h-567v-707h-102z" />
<glyph unicode="g" horiz-adv-x="983" d="M51 598q0 88 34 166t91 135t135 91t166 34q102 0 188.5 -43t145.5 -117v162h102v-1249l-4 -10q-27 -61 -69.5 -114.5t-100.5 -90.5q-53 -35 -114.5 -53.5t-126.5 -18.5h-15q-86 4 -166.5 40t-140.5 99q-59 63 -91 145q-30 78 -30 161v10v51h105v-53v-11q0 -62 22 -120 q23 -64 70 -113q45 -47 106.5 -74.5t128.5 -32.5h13q46 0 90 12q51 15 94 44q88 57 127 149v535q-59 -74 -145 -118t-189 -44q-88 0 -166 34t-135 92t-91 136t-34 166zM154 598q0 -68 25.5 -126t69.5 -103t102 -71t126 -26t126.5 26t103.5 71t70.5 103t25.5 126t-25.5 126 t-70.5 102t-103.5 70t-126.5 26t-126 -26t-102 -70t-69.5 -102t-25.5 -126z" />
<glyph unicode="h" horiz-adv-x="909" d="M74 2v1532h102v-649q23 16 48.5 30.5t51.5 26.5q47 23 97.5 33t97.5 12h10q105 0 195 -41q49 -23 90 -59.5t68 -83.5q35 -61 44 -132t11 -145q1 -119 1 -237.5t-1 -235.5v-51h-105v53q3 116 3 233.5t-3 235.5q-2 66 -8 124.5t-33 105.5q-18 31 -46.5 57.5t-65.5 42.5 q-61 31 -138 31h-18q-80 -2 -157.5 -36t-133.5 -93l-8 -8v-746h-102z" />
<glyph unicode="i" horiz-adv-x="305" d="M35 1313q0 51 34.5 86t84.5 35q49 0 83.5 -35t34.5 -86q0 -49 -34.5 -84t-83.5 -35t-84 35t-35 84zM102 4v1012h103v-1012h-103z" />
<glyph unicode="j" horiz-adv-x="983" d="M6 -6h105v-53v-11q0 -60 21 -118q22 -64 69 -113q47 -47 108.5 -74.5t126.5 -32.5h13q46 0 91 12q50 15 93 44q41 27 73.5 64.5t53.5 82.5v1227h102v-1247l-4 -8q-53 -129 -170 -205q-108 -72 -239 -72h-17q-86 4 -166 40t-139 99t-91 145q-30 78 -30 159v10v51z M696 1313q0 51 35 86t84 35t84 -35t35 -86q0 -49 -35 -84t-84 -35t-84 35t-35 84z" />
<glyph unicode="k" horiz-adv-x="976" d="M76 4v1530h102v-721l635 496h156l-740 -584l746 -721h-146l-651 627v-627h-102z" />
<glyph unicode="l" horiz-adv-x="260" d="M74 4v1532h102v-1532h-102z" />
<glyph unicode="m" horiz-adv-x="1812" d="M76 4v51q-2 116 -2 233.5t2 235.5v500h102v-147q23 29 52.5 51t62.5 39q51 29 109.5 42t117.5 13t116.5 -14.5t108.5 -40.5q94 -51 146 -133l18 -31q4 8 8.5 15t8.5 16q51 82 145 133q51 27 108.5 41t116.5 14t118 -13.5t110 -41.5q47 -23 84 -56.5t63 -74.5 q51 -78 60.5 -160t9.5 -152q2 -125 2 -234.5t-2 -234.5v-51h-103v53q2 116 2 232t-2 233q-2 63 -8 130t-45 126q-41 61 -110 99q-78 43 -179 43q-47 0 -91 -11.5t-85 -31.5q-66 -37 -108 -99q-37 -59 -43 -123.5t-8 -130.5v-125h-105v125q-2 61 -7 128t-44 126 q-43 61 -109 99q-39 20 -84 31.5t-92 11.5h-2q-47 0 -92 -10.5t-84 -32.5q-72 -37 -111 -99q-39 -59 -45 -125.5t-8 -130.5v-49q-2 -104 -2 -208.5t2 -207.5v-53h-102z" />
<glyph unicode="n" horiz-adv-x="952" d="M74 2v1020h102v-137q23 16 48.5 30.5t51.5 26.5q47 23 97.5 33t97.5 12h10q105 0 195 -41q49 -23 90 -59.5t68 -83.5q35 -61 44 -132t11 -145q1 -119 1 -237.5t-1 -235.5v-51h-105v53q3 116 3 233.5t-3 235.5q-2 66 -8 124.5t-33 105.5q-18 31 -46.5 57.5t-65.5 42.5 q-61 31 -138 31h-18q-80 -2 -157.5 -36t-133.5 -93l-8 -8v-746h-102z" />
<glyph unicode="o" horiz-adv-x="1122" d="M51 514q0 104 39 196.5t111 163.5q72 72 164 111t196 39q102 0 195.5 -39t165.5 -111t110.5 -164t38.5 -196q0 -102 -39 -195.5t-110 -164.5q-72 -72 -165.5 -111t-195.5 -39q-104 0 -196.5 39t-163.5 111q-72 72 -111 165t-39 195zM154 514q0 -84 31.5 -158.5t87 -130 t130 -87.5t158.5 -32t158 32t129 87.5t88 130t33 158.5t-33 159t-88 130t-129 87t-158 32t-158.5 -32t-130 -87t-87 -130t-31.5 -159z" />
<glyph unicode="p" horiz-adv-x="1112" d="M74 -510v1532h102v-219q27 39 57 67q72 72 164 111t195 39q102 0 194.5 -39t163.5 -111q72 -72 111 -164t39 -194t-39 -194.5t-111 -163.5q-72 -72 -164 -111t-194 -39t-194.5 39t-164.5 111q-31 29 -57 67v-731h-102zM186 512q0 -84 32 -157.5t87 -129t129 -87.5 t158 -32t157.5 32t129 87.5t87 129t31.5 157.5t-31.5 157.5t-87 129t-129 87.5t-157.5 32t-158 -32t-129 -87.5t-87 -129t-32 -157.5z" />
<glyph unicode="q" horiz-adv-x="1114" d="M12 512q0 102 39 194.5t111 163.5q72 72 164 111t194 39t194.5 -39t164.5 -111q31 -29 57 -67v219h102v-1532h-102v731q-27 -39 -57 -67q-72 -72 -164 -111t-195 -39q-102 0 -194.5 39t-163.5 111q-72 72 -111 164t-39 194zM115 512q0 -84 31.5 -157.5t87 -129t129 -87.5 t157.5 -32t158 32t129 87.5t87 129t32 157.5t-32 157.5t-87 129t-129 87.5t-158 32t-157.5 -32t-129 -87.5t-87 -129t-31.5 -157.5z" />
<glyph unicode="r" horiz-adv-x="665" d="M74 2v1020h102v-199q41 43 92 78t109 62q106 47 225 59l62 6v-102l-52 -6q-51 -4 -99 -17.5t-95 -34.5q-72 -33 -130.5 -82t-97.5 -108l-14 -21v-655h-102z" />
<glyph unicode="s" horiz-adv-x="786" d="M55 258h103q-2 -25 12 -53.5t43 -48.5q35 -25 82 -38.5t98 -13.5t97.5 13.5t80.5 38.5q61 41 58 94q-6 57 -80 112q-39 29 -85 54.5t-93 50.5q-51 25 -101.5 51.5t-95.5 61.5q-109 88 -119 186q-1 7 -1 14q0 44 22 88q26 50 80 84q47 35 108.5 52.5t128.5 17.5 q66 0 128.5 -17.5t109.5 -52.5q51 -35 77 -84q23 -43 24 -88q0 -7 -1 -14h-102q2 25 -13.5 53.5t-44.5 48.5q-35 25 -81 38.5t-97 13.5t-98 -13.5t-82 -38.5q-55 -40 -56 -88q0 -3 1 -6q4 -55 80 -112q37 -29 84 -54.5t94 -50.5q51 -25 101 -51.5t95 -61.5q109 -88 119 -186 q1 -7 1 -14q0 -46 -24 -88q-26 -50 -77 -84q-47 -35 -109.5 -52.5t-128.5 -17.5t-128 17.5t-109 52.5q-53 35 -79 84q-23 42 -23 88q0 7 1 14z" />
<glyph unicode="t" horiz-adv-x="751" d="M70 240v1292h102v-698h567v-103h-567v-481q16 -35 44 -65.5t63 -49.5q56 -31 115 -31q24 0 48 5q43 10 82 33.5t66 60.5q27 35 39 79q9 33 9 67q0 11 -1 22l-4 59h100l6 -51q2 -16 2 -33q0 -46 -13 -92q-17 -62 -56 -113t-93.5 -86t-115.5 -47q-35 -6 -68 -6 q-90 0 -166 43q-53 29 -93 75t-62 101z" />
<glyph unicode="u" horiz-adv-x="958" d="M66 718q0 130 2 249v51h104v-53q-4 -117 -4 -247t4 -247q2 -66 8 -124t33 -105q18 -31 47 -57.5t66 -43.5q60 -31 134 -31q11 0 21 1q80 2 158 35.5t133 93.5l8 8v770h103v-1012h-103v105q-23 -16 -48 -30.5t-52 -27.5q-47 -23 -97.5 -33t-97.5 -12h-10q-105 0 -194 41 q-49 23 -90 59.5t-68 84.5q-35 61 -44 131.5t-11 144.5q-2 119 -2 249z" />
<glyph unicode="v" horiz-adv-x="817" d="M29 1020h96l283 -842l282 842h98l-331 -1016h-97z" />
<glyph unicode="w" horiz-adv-x="1200" d="M47 1022h98l209 -805l195 805h100l195 -805l211 805h98l-260 -1016h-98l-197 731l-195 -731h-98z" />
<glyph unicode="x" horiz-adv-x="970" d="M57 0l365 530l-365 531h115l313 -443l314 443h114l-364 -531l364 -530h-114l-314 442l-313 -442h-115z" />
<glyph unicode="y" horiz-adv-x="983" d="M66 -10h102v-56q-1 -9 -1 -18q0 -57 21 -110q25 -62 70 -109t106.5 -75t127.5 -32h14q98 0 180 54q84 55 125 147v383q-150 -72 -317 -72q-53 0 -104.5 6.5t-100.5 22.5q-55 18 -92 41q-47 27 -80 72q-33 47 -45 100q-4 25 -5 49.5t-1 48.5v578h102v-578v-41t4 -36 q10 -37 27 -62q20 -29 51 -43q14 -10 30.5 -16t38.5 -15q85 -26 174 -26q37 0 75 5q128 15 237 79l6 4v729h102v-1249l-4 -9q-51 -129 -168 -202q-53 -35 -114.5 -53.5t-124.5 -18.5h-15q-86 4 -164.5 40t-138.5 99q-59 61 -91 143q-28 72 -28 146q0 11 1 23v51z" />
<glyph unicode="z" horiz-adv-x="845" d="M39 2l582 920h-539v102h725l-582 -920h541v-102h-727z" />
<glyph unicode="{" horiz-adv-x="577" d="M27 612q0 29 26 43l103 60v659q0 23 14 37t37 14h356v-102h-305v-639q0 -29 -27 -45l-49 -27l49 -28q27 -14 27 -45v-672h305v-103h-356q-23 0 -37 14.5t-14 37.5v692l-103 59q-27 12 -26 45z" />
<glyph unicode="|" horiz-adv-x="260" d="M74 -332v1618h102v-1618h-102z" />
<glyph unicode="}" horiz-adv-x="577" d="M14 -133h305v672q0 31 27 45l49 28l-49 27q-27 16 -27 45v639h-305v102h357q23 0 37 -14t14 -37v-659l102 -60q27 -14 27 -43q0 -33 -27 -45l-102 -59v-692q0 -23 -14.5 -37.5t-36.5 -14.5h-357v103z" />
<glyph unicode="~" horiz-adv-x="901" d="M55 346l11 49q10 43 37.5 79t68.5 58q41 23 88 28t92 -7q39 -10 70 -29.5t57 -36.5q23 -16 46.5 -30.5t49.5 -22.5q57 -12 105 12q45 23 55 68l10 51l101 -22l-10 -49q-10 -43 -39 -79t-70 -59t-87 -27.5t-91 7.5q-39 10 -69.5 28.5t-57.5 38.5q-23 16 -47.5 29.5 t-48.5 22.5q-57 12 -105 -13q-45 -23 -55 -67l-12 -51z" />
<glyph unicode="&#xa1;" horiz-adv-x="305" d="M35 899q0 51 34.5 86t84.5 35q49 0 83.5 -35t34.5 -86q0 -49 -34.5 -84t-83.5 -35t-84 35t-35 84zM102 -410v1012h103v-1012h-103z" />
<glyph unicode="&#xa3;" horiz-adv-x="950" d="M35 504v102h182q-2 10 -4 19.5t-6 19.5q-10 37 -21.5 75t-21.5 79q-16 68 -21.5 126t-1.5 111q10 135 80 236q37 51 88 87t111 54q125 39 246 -6q59 -23 107 -62.5t81 -93.5q35 -53 49.5 -113.5t9.5 -121.5l-4 -51h-102l4 59q4 45 -7 90t-36 84q-49 78 -139 113 q-90 33 -178 4q-43 -12 -81 -39t-65 -64q-55 -78 -61 -184q-6 -92 20 -207q8 -37 19.5 -74.5t21.5 -72.5l19 -68h264v-102h-238q6 -31 11.5 -62.5t7.5 -64.5q6 -70 -2.5 -139.5t-28.5 -135.5h575v-102h-727l31 72q61 141 49 299q-2 35 -7 66.5t-13 66.5h-211z" />
<glyph unicode="&#xa5;" horiz-adv-x="1236" d="M20 1448h123l475 -662l474 662h125l-547 -764v-63h360v-103h-360v-145h360v-103h-360v-272h-103v272h-360v103h360v145h-360v103h360v63z" />
<glyph unicode="&#xa8;" horiz-adv-x="477" d="M66 1194q0 27 18 46.5t43 19.5q27 0 45 -19.5t18 -46.5q0 -25 -18 -43t-45 -18q-25 0 -43 18t-18 43zM287 1194q0 27 18.5 46.5t42.5 19.5q27 0 45.5 -19.5t18.5 -46.5q0 -25 -18.5 -43t-45.5 -18q-25 0 -43 18t-18 43z" />
<glyph unicode="&#xa9;" horiz-adv-x="1531" d="M51 711q0 145 55 278q55 129 154 228q98 98 227 153q131 55 279 55q145 0 278 -55q125 -55 228 -153q100 -100 151 -228q57 -137 58 -278q0 -141 -58 -279q-53 -129 -151 -227q-102 -100 -228 -152q-128 -57 -278 -57t-279 57q-127 51 -227 152q-96 96 -154 227 q-55 131 -55 279zM154 711q0 -127 48 -239t131 -194.5t194.5 -131t238.5 -48.5t238.5 48.5t194.5 131t131 194.5t48 239t-48 238.5t-131 194.5t-194.5 131t-238.5 48t-238.5 -48t-194.5 -131t-131 -194.5t-48 -238.5zM311 758q12 145 90 260q78 119 199 172q127 57 256 33 q131 -25 229 -121l37 -35l-69 -74l-37 35q-78 76 -178 94q-49 10 -98.5 3t-96.5 -27q-96 -45 -158 -137q-31 -45 -49 -99.5t-22 -111.5q-6 -63 5 -126t38 -118q27 -53 66.5 -97t86.5 -73q100 -57 209 -45q113 16 197 96l37 35l69 -74l-37 -35q-53 -51 -117.5 -81.5 t-133.5 -41.5q-14 -2 -28 -3t-26 -1q-57 0 -113.5 15.5t-107.5 46.5q-61 35 -111.5 90t-82.5 123q-33 68 -47.5 144.5t-6.5 152.5z" />
<glyph unicode="&#xad;" horiz-adv-x="634" d="M74 516v102h485v-102h-485z" />
<glyph unicode="&#xae;" horiz-adv-x="1531" d="M51 713q0 145 55 278q55 129 154 228q98 98 227 153q131 55 279 55q145 0 278 -55q125 -55 228 -153q100 -101 151 -228q57 -137 58 -278q0 -141 -58 -279q-53 -129 -151 -227q-102 -100 -228 -152q-129 -57 -278 -57q-150 0 -279 57q-127 51 -227 152q-96 96 -154 227 q-55 131 -55 279zM154 713q0 -127 48 -239t131 -194.5t194.5 -131t238.5 -48.5q80 0 155.5 20.5t141.5 57.5l-201 492q-10 0 -18 -1t-19 -1h-225v-461h-102v1026h327q43 -2 93.5 -7t101.5 -38q53 -37 84 -96q35 -66 35 -144t-35 -141q-31 -59 -86 -94q-12 -10 -25.5 -16.5 t-25.5 -10.5l182 -450q104 86 166.5 208.5t62.5 268.5q0 127 -48 238.5t-131 194.5t-194.5 131t-238.5 48t-238.5 -48t-194.5 -131t-131 -194.5t-48 -238.5zM600 770h223q43 2 77 6t63 23q31 18 51 55q23 45 22 94q0 51 -22 96q-16 33 -51 58q-29 18 -63 22t-77 6h-223v-360 z" />
<glyph unicode="&#xaf;" horiz-adv-x="727" d="M74 1423v103h577v-103h-577z" />
<glyph unicode="&#xb4;" horiz-adv-x="407" d="M14 1182l324 219l57 -86l-325 -217z" />
<glyph unicode="&#xb7;" horiz-adv-x="229" d="M51 590q0 27 18.5 46t43.5 19q27 0 45 -19t18 -46q0 -25 -18.5 -43.5t-44.5 -18.5q-25 0 -43.5 18.5t-18.5 43.5z" />
<glyph unicode="&#xb8;" horiz-adv-x="395" d="M74 2h102v-143h129l12 -11q29 -16 41 -51q12 -31 13 -63q-4 -41 -23 -76q-27 -39 -67 -45l-5 -2h-202v102h188q2 4 4 9.5t2 13.5t-4 20h-190v246z" />
<glyph unicode="&#xbf;" horiz-adv-x="686" d="M45.5 -61.5q9.5 75.5 52.5 137.5q18 27 41 48t45 44l4 2q20 18 39 36.5t35 41.5q31 39 43 88q6 25 7 52.5t1 53.5v162h103v-162q0 -31 -1 -63.5t-12 -67.5q-14 -63 -57 -125q-20 -27 -42.5 -48t-47.5 -44l-2 -4q-20 -16 -38.5 -34.5t-33.5 -39.5q-29 -41 -34 -91t12 -97 q18 -45 57 -79t86 -44t97.5 3t84.5 48q35 35 52.5 83t7.5 98l-8 67h100l8 -51q14 -74 -10.5 -146.5t-77.5 -123.5q-55 -53 -129 -74t-147 -4q-72 16 -130.5 66t-87.5 120q-27 72 -17.5 147.5zM254 903q0 51 35 86t84 35t84 -35t35 -86q0 -49 -35 -84t-84 -35t-84 35t-35 84z " />
<glyph unicode="&#xc0;" horiz-adv-x="1144" d="M31 2l497 1428h97l499 -1428h-116l-199 578h-463l-199 -578h-116zM307 1724l58 86l323 -219l-55 -84zM381 682h393l-196 573z" />
<glyph unicode="&#xc1;" horiz-adv-x="1142" d="M18 2h117l199 578h463l198 -578h117l-500 1428h-96zM369 682l196 573l197 -573h-393zM461 1591l323 219l58 -86l-326 -217z" />
<glyph unicode="&#xc2;" horiz-adv-x="1146" d="M27 2h116l199 578h463l199 -578h116l-499 1428h-97zM317 1595l224 193h67l221 -193l-65 -77l-191 163l-188 -163zM377 682l196 573l197 -573h-393z" />
<glyph unicode="&#xc3;" horiz-adv-x="1146" d="M27 2h116l199 578h463l199 -578h116l-499 1428h-97zM276 1538l9 49q12 88 77 137q33 25 72 31t76 -8q31 -10 54.5 -31.5t43.5 -40.5q16 -14 30.5 -27.5t31.5 -19.5q25 -8 51 8q31 23 37 70l8 51l102 -16l-8 -49q-16 -90 -78 -138q-33 -25 -72.5 -30.5t-76.5 8.5 q-31 12 -54.5 32.5t-41.5 39.5q-16 14 -30.5 27.5t-31.5 19.5q-29 10 -51 -9q-33 -23 -39 -69l-8 -51zM377 682l196 573l197 -573h-393z" />
<glyph unicode="&#xc4;" horiz-adv-x="1134" d="M20 2h117l199 578h463l198 -578h117l-500 1428h-96zM371 682l196 573l197 -573h-393zM397 1604q0 27 18.5 46t43.5 19q27 0 45 -19t18 -46q0 -25 -18.5 -43.5t-44.5 -18.5q-25 0 -43.5 18.5t-18.5 43.5zM618 1604q0 27 18.5 46t43.5 19q27 0 45 -19t18 -46 q0 -25 -18 -43.5t-45 -18.5q-25 0 -43.5 18.5t-18.5 43.5z" />
<glyph unicode="&#xc5;" horiz-adv-x="1105" d="M27 2h116l199 578h463l199 -578h116l-499 1428h-97zM377 682l196 573l197 -573h-393zM399 1620q0 72 51.5 123t122.5 51q74 0 125.5 -51t51.5 -123q0 -37 -13.5 -68.5t-38 -55t-56.5 -38t-69 -14.5t-68.5 14.5t-55 38t-37 55t-13.5 68.5zM502 1620q0 -31 21.5 -52.5 t49.5 -21.5q31 0 52.5 21.5t21.5 52.5q0 29 -21.5 50.5t-52.5 21.5q-29 0 -50 -21.5t-21 -50.5z" />
<glyph unicode="&#xc6;" horiz-adv-x="1812" d="M25 8l843 1424h914v-103h-811v-561h805v-102h-805v-562h811v-102h-914v557h-401l-328 -551h-114zM528 662h340v569z" />
<glyph unicode="&#xc7;" horiz-adv-x="1204" d="M57 784q18 197 125 359q53 78 122 138t153 97q166 76 348 45q176 -35 315 -163l37 -37l-70 -74l-38 35q-55 55 -123 90t-140 47q-147 29 -288 -35q-68 -33 -127.5 -83t-104.5 -118q-90 -137 -106 -311q-8 -92 8 -183t55 -171q82 -164 228 -250q72 -41 151.5 -58.5 t157.5 -7.5q80 10 154.5 46t134.5 96l38 35l70 -74l-37 -35q-72 -70 -162 -114t-186 -56q-16 -2 -34.5 -3t-37.5 -1q-16 0 -29.5 1t-27.5 1v-57h129l12 -11q29 -16 41 -51q12 -31 13 -63q-4 -41 -23 -76q-27 -39 -67 -45l-5 -2h-202v102h188q2 4 4 9.5t2 13.5t-4 20h-190 v180q-72 18 -142 60q-86 49 -153.5 126t-114.5 169q-45 94 -64.5 198.5t-9.5 210.5z" />
<glyph unicode="&#xc8;" horiz-adv-x="993" d="M74 2v1425h913v-102h-811v-559h811v-102h-811v-560h811v-102h-913zM305 1724l57 86l324 -219l-55 -84z" />
<glyph unicode="&#xc9;" horiz-adv-x="993" d="M74 2h913v102h-811v560h811v102h-811v559h811v102h-913v-1425zM305 1591l324 219l57 -86l-326 -217z" />
<glyph unicode="&#xca;" horiz-adv-x="993" d="M74 2h913v102h-811v560h811v102h-811v559h811v102h-913v-1425zM240 1595l223 193h67l222 -193l-66 -77l-190 163l-189 -163z" />
<glyph unicode="&#xcb;" horiz-adv-x="993" d="M74 2h913v102h-811v560h811v102h-811v559h811v102h-913v-1425zM324 1604q0 27 18 46t43 19q27 0 45.5 -19t18.5 -46q0 -25 -18.5 -43.5t-45.5 -18.5q-25 0 -43 18.5t-18 43.5zM545 1604q0 27 18.5 46t42.5 19q27 0 45.5 -19t18.5 -46q0 -25 -18.5 -43.5t-45.5 -18.5 q-25 0 -43 18.5t-18 43.5z" />
<glyph unicode="&#xcc;" horiz-adv-x="1009" d="M29 -4v102h426v1225h-426v102h952v-102h-424v-1225h424v-102h-952zM313 1724l58 86l323 -219l-55 -84z" />
<glyph unicode="&#xcd;" horiz-adv-x="1009" d="M29 -4h952v102h-424v1225h424v102h-952v-102h426v-1225h-426v-102zM313 1591l324 219l57 -86l-325 -217z" />
<glyph unicode="&#xce;" horiz-adv-x="1009" d="M29 -4h952v102h-424v1225h424v102h-952v-102h426v-1225h-426v-102zM248 1595l223 193h68l221 -193l-66 -77l-190 163l-189 -163z" />
<glyph unicode="&#xcf;" horiz-adv-x="1009" d="M29 -4h952v102h-424v1225h424v102h-952v-102h426v-1225h-426v-102zM332 1604q0 27 18.5 46t42.5 19q27 0 45.5 -19t18.5 -46q0 -25 -18.5 -43.5t-45.5 -18.5q-25 0 -43 18.5t-18 43.5zM553 1604q0 27 18.5 46t42.5 19q27 0 45.5 -19t18.5 -46q0 -25 -18.5 -43.5 t-45.5 -18.5q-25 0 -43 18.5t-18 43.5z" />
<glyph unicode="&#xd0;" horiz-adv-x="1302" d="M41 664v102h186v659h439q43 0 90 -3t94 -15t94 -35.5t92 -64.5q93 -86 150 -236q29 -80 45 -172t16 -184t-16.5 -184.5t-44.5 -172.5q-57 -150 -150 -235q-45 -41 -92 -64.5t-94 -36t-94 -15.5t-90 -3h-439v660h-186zM330 106h336q39 0 78.5 2.5t77.5 11.5t74 27.5 t71 51.5q76 69 123 194q27 72 41 154t14 168q0 84 -14.5 166t-40.5 153q-47 127 -123 197q-70 63 -146 77.5t-155 14.5h-336v-557h196v-102h-196v-558z" />
<glyph unicode="&#xd1;" horiz-adv-x="1312" d="M74 0v1432h92l971 -1235v1235h102v-1432h-92l-971 1233v-1233h-102zM360 1538l9 49q12 88 77 137q33 25 72 31t76 -8q31 -10 54.5 -31.5t43.5 -40.5q16 -14 30.5 -27.5t31.5 -19.5q25 -8 51 8q31 23 37 70l8 51l102 -16l-8 -49q-16 -90 -78 -138q-33 -25 -72.5 -30.5 t-76.5 8.5q-31 12 -54.5 32.5t-41.5 39.5q-16 14 -31 27.5t-31 19.5q-29 10 -51 -9q-33 -23 -39 -69l-8 -51z" />
<glyph unicode="&#xd2;" d="M51 713q0 141 42 270t122 231q82 102 184 156q111 57 230 57q117 0 227 -57q102 -53 184 -156q80 -102 122 -231t42 -270t-42 -270.5t-122 -231.5q-82 -102 -184 -156q-110 -57 -227 -57q-119 0 -230 57q-102 53 -184 156q-80 102 -122 231t-42 271zM154 713 q0 -127 36.5 -239t101 -194.5t151.5 -131t186 -48.5q98 0 184 48.5t150.5 131t101.5 194.5t37 239t-37 238.5t-101.5 194.5t-150.5 131t-184 48t-185.5 -48t-152 -131t-101 -194.5t-36.5 -238.5zM436 1724l58 86l323 -219l-55 -84z" />
<glyph unicode="&#xd3;" d="M51 713q0 141 42 270t122 231q82 102 184 156q111 57 230 57q117 0 227 -57q102 -53 184 -156q80 -102 122 -231t42 -270t-42 -270.5t-122 -231.5q-82 -102 -184 -156q-110 -57 -227 -57q-119 0 -230 57q-102 53 -184 156q-80 102 -122 231t-42 271zM154 713 q0 -127 36.5 -239t101 -194.5t151.5 -131t186 -48.5q98 0 184 48.5t150.5 131t101.5 194.5t37 239t-37 238.5t-101.5 194.5t-150.5 131t-184 48t-185.5 -48t-152 -131t-101 -194.5t-36.5 -238.5zM436 1591l324 219l57 -86l-325 -217z" />
<glyph unicode="&#xd4;" d="M51 713q0 141 42 270t122 231q82 102 184 156q111 57 230 57q117 0 227 -57q102 -53 184 -156q80 -102 122 -231t42 -270t-42 -270.5t-122 -231.5q-82 -102 -184 -156q-110 -57 -227 -57q-119 0 -230 57q-102 53 -184 156q-80 102 -122 231t-42 271zM154 713 q0 -127 36.5 -239t101 -194.5t151.5 -131t186 -48.5q98 0 184 48.5t150.5 131t101.5 194.5t37 239t-37 238.5t-101.5 194.5t-150.5 131t-184 48t-185.5 -48t-152 -131t-101 -194.5t-36.5 -238.5zM371 1595l223 193h68l221 -193l-66 -77l-190 163l-189 -163z" />
<glyph unicode="&#xd5;" d="M51 713q0 141 42 270t122 231q82 102 184 156q111 57 230 57q117 0 227 -57q102 -53 184 -156q80 -102 122 -231t42 -270t-42 -270.5t-122 -231.5q-82 -102 -184 -156q-110 -57 -227 -57q-119 0 -230 57q-102 53 -184 156q-80 102 -122 231t-42 271zM154 713 q0 -127 36.5 -239t101 -194.5t151.5 -131t186 -48.5q98 0 184 48.5t150.5 131t101.5 194.5t37 239t-37 238.5t-101.5 194.5t-150.5 131t-184 48t-185.5 -48t-152 -131t-101 -194.5t-36.5 -238.5zM332 1538l8 49q12 88 78 137q33 25 71.5 31t75.5 -8q31 -10 54.5 -31.5 t44.5 -40.5q16 -14 30.5 -27.5t30.5 -19.5q25 -8 51 8q31 23 37 70l8 51l103 -16l-9 -49q-16 -90 -77 -138q-33 -25 -73 -30.5t-77 8.5q-31 12 -54.5 32.5t-41.5 39.5q-16 14 -30.5 27.5t-31.5 19.5q-29 10 -51 -9q-33 -23 -39 -69l-8 -51z" />
<glyph unicode="&#xd6;" d="M51 713q0 141 42 270t122 231q82 102 184 156q111 57 230 57q117 0 227 -57q102 -53 184 -156q80 -102 122 -231t42 -270t-42 -270.5t-122 -231.5q-82 -102 -184 -156q-110 -57 -227 -57q-119 0 -230 57q-102 53 -184 156q-80 102 -122 231t-42 271zM154 713 q0 -127 36.5 -239t101 -194.5t151.5 -131t186 -48.5q98 0 184 48.5t150.5 131t101.5 194.5t37 239t-37 238.5t-101.5 194.5t-150.5 131t-184 48t-185.5 -48t-152 -131t-101 -194.5t-36.5 -238.5zM455 1604q0 27 18.5 46t42.5 19q27 0 45.5 -19t18.5 -46q0 -25 -18.5 -43.5 t-45.5 -18.5q-25 0 -43 18.5t-18 43.5zM676 1604q0 27 18.5 46t42.5 19q27 0 45.5 -19t18.5 -46q0 -25 -18.5 -43.5t-45.5 -18.5q-25 0 -43 18.5t-18 43.5z" />
<glyph unicode="&#xd8;" d="M51 713q0 141 42 270t122 231q82 102 184 156q111 57 230 57q117 0 227 -57q12 -8 21 -12l12 28l92 -43l-20 -45q41 -35 79 -84q80 -102 122 -231t42 -270t-42 -270.5t-122 -231.5q-82 -102 -184 -156q-111 -57 -227 -57q-119 0 -230 57q-8 2 -16 8l-18 -43l-93 43l27 60 q-23 18 -43 40.5t-41 47.5q-80 102 -122 231t-42 271zM154 713q0 -152 52 -280t138 -212l487 1043q-96 61 -202 61q-98 0 -185.5 -48t-152 -131t-101 -194.5t-36.5 -238.5zM428 158q97 -58 201 -58q98 0 184 48.5t150.5 131t101.5 194.5t37 239q0 150 -51.5 275.5 t-137.5 211.5z" />
<glyph unicode="&#xd9;" horiz-adv-x="1034" d="M66 696q-4 338 0 678v51h102v-51q-4 -340 0 -678q0 -94 8 -195.5t49 -193.5q20 -45 50 -82t65 -65q80 -61 174 -62h2q92 0 176 62q74 53 117 147q41 92 49 193.5t8 195.5q4 338 0 678v51h103v-51q4 -340 0 -678q0 -98 -9.5 -211.5t-58.5 -220.5q-53 -119 -147 -186 q-111 -82 -238 -82h-2q-61 0 -121.5 21.5t-113.5 62.5q-94 68 -148 186q-47 104 -56 216t-9 214zM326 1724l57 86l324 -219l-56 -84z" />
<glyph unicode="&#xda;" horiz-adv-x="1034" d="M66 696q-4 338 0 678v51h102v-51q-4 -340 0 -678q0 -94 8 -195.5t49 -193.5q20 -45 50 -82t65 -65q80 -61 174 -62h2q92 0 176 62q74 53 117 147q41 92 49 193.5t8 195.5q4 338 0 678v51h103v-51q4 -340 0 -678q0 -98 -9.5 -211.5t-58.5 -220.5q-53 -119 -147 -186 q-111 -82 -238 -82h-2q-61 0 -121.5 21.5t-113.5 62.5q-94 68 -148 186q-47 104 -56 216t-9 214zM326 1591l323 219l58 -86l-326 -217z" />
<glyph unicode="&#xdb;" horiz-adv-x="1034" d="M66 696q-4 338 0 678v51h102v-51q-4 -340 0 -678q0 -94 8 -195.5t49 -193.5q20 -45 50 -82t65 -65q80 -61 174 -62h2q92 0 176 62q74 53 117 147q41 92 49 193.5t8 195.5q4 338 0 678v51h103v-51q4 -340 0 -678q0 -98 -9.5 -211.5t-58.5 -220.5q-53 -119 -147 -186 q-111 -82 -238 -82h-2q-61 0 -121.5 21.5t-113.5 62.5q-94 68 -148 186q-47 104 -56 216t-9 214zM260 1595l223 193h68l221 -193l-65 -77l-191 163l-188 -163z" />
<glyph unicode="&#xdc;" horiz-adv-x="1034" d="M66 696q-4 338 0 678v51h102v-51q-4 -340 0 -678q0 -94 8 -195.5t49 -193.5q20 -45 50 -82t65 -65q80 -61 174 -62h2q92 0 176 62q74 53 117 147q41 92 49 193.5t8 195.5q4 338 0 678v51h103v-51q4 -340 0 -678q0 -98 -9.5 -211.5t-58.5 -220.5q-53 -119 -147 -186 q-111 -82 -238 -82h-2q-61 0 -121.5 21.5t-113.5 62.5q-94 68 -148 186q-47 104 -56 216t-9 214zM344 1604q0 27 18.5 46t43.5 19q27 0 45 -19t18 -46q0 -25 -18.5 -43.5t-44.5 -18.5q-25 0 -43.5 18.5t-18.5 43.5zM565 1604q0 27 18.5 46t43.5 19q27 0 45 -19t18 -46 q0 -25 -18.5 -43.5t-44.5 -18.5q-25 0 -43.5 18.5t-18.5 43.5z" />
<glyph unicode="&#xdd;" horiz-adv-x="1236" d="M20 1448l547 -764v-686h103v686l547 764h-125l-474 -662l-475 662h-123zM428 1591l324 219l57 -86l-326 -217z" />
<glyph unicode="&#xde;" horiz-adv-x="1128" d="M74 18v1250h102v-310q27 39 57 68q72 72 164 111t195 39q102 0 194.5 -39t163.5 -111q72 -72 111 -164t39 -194t-39 -194.5t-111 -164.5t-164 -110.5t-194 -38.5t-194.5 39t-164.5 110q-31 29 -57 68v-359h-102zM186 668q0 -84 32 -158t87 -129t129 -87t158 -32t157.5 32 t129 87t87 129t31.5 158t-31.5 157.5t-87 129t-129 87t-157.5 31.5t-158 -31.5t-129 -87t-87 -129t-32 -157.5z" />
<glyph unicode="&#xdf;" horiz-adv-x="972" d="M68 10v1090l2 10q12 72 53 136.5t100 109.5q59 43 133 60.5t150 6.5q74 -10 138.5 -48t111.5 -97t67.5 -132t12.5 -147q-6 -55 -29 -108t-57 -96q-12 -16 -26.5 -29.5t-31.5 -28.5q51 -20 96 -59q49 -43 82 -98.5t45 -120.5q10 -53 5 -108.5t-25 -106.5 q-41 -104 -131 -170q-90 -68 -203 -74q-8 -2 -24 -2q-98 0 -187 47l-45 25l49 90l45 -25q74 -39 156 -33q41 2 79 16.5t71 37.5t56 55.5t40 69.5q29 82 14 159q-10 47 -33.5 88t-60.5 72q-35 31 -87 48.5t-99 19.5v100q80 25 135 92q53 68 63 150q12 115 -57 207 q-72 90 -187 106q-53 8 -107 -5t-99 -46q-90 -68 -113 -176v-1086h-102z" />
<glyph unicode="&#xe0;" horiz-adv-x="1150" d="M49 508q0 102 39 194.5t111 163.5q72 72 164 111t194 39t194.5 -39t163.5 -111q31 -29 58 -67v219h102v-1020h-102v219q-27 -39 -58 -67q-72 -72 -164 -111t-194 -39t-194.5 39t-163.5 111q-72 72 -111 164t-39 194zM152 508q0 -84 31.5 -158t87 -129t129 -87t157.5 -32 t157.5 32t129 87t87.5 129t32 158t-32 157.5t-87.5 129t-129 87t-157.5 31.5t-157.5 -31.5t-129 -87t-87 -129t-31.5 -157.5zM385 1315l57 86l324 -219l-55 -84z" />
<glyph unicode="&#xe1;" horiz-adv-x="1150" d="M49 508q0 -102 39 -194.5t111 -163.5q72 -72 164 -111t194 -39t194.5 39t163.5 111q31 29 58 67v-219h102v1020h-102v-219q-27 39 -58 67q-72 72 -164 111t-194 39t-194.5 -39t-163.5 -111q-72 -72 -111 -164t-39 -194zM152 508q0 84 31.5 157.5t87 129t129 87 t157.5 31.5t157.5 -31.5t129 -87t87.5 -129t32 -157.5t-32 -158t-87.5 -129t-129 -87t-157.5 -32t-157.5 32t-129 87t-87 129t-31.5 158zM385 1182l324 219l57 -86l-326 -217z" />
<glyph unicode="&#xe2;" horiz-adv-x="1150" d="M49 508q0 -102 39 -194.5t111 -163.5q72 -72 164 -111t194 -39t194.5 39t163.5 111q31 29 58 67v-219h102v1020h-102v-219q-27 39 -58 67q-72 72 -164 111t-194 39t-194.5 -39t-163.5 -111q-72 -72 -111 -164t-39 -194zM152 508q0 84 31.5 157.5t87 129t129 87 t157.5 31.5t157.5 -31.5t129 -87t87.5 -129t32 -157.5t-32 -158t-87.5 -129t-129 -87t-157.5 -32t-157.5 32t-129 87t-87 129t-31.5 158zM319 1186l224 192h67l221 -192l-65 -78l-191 164l-188 -164z" />
<glyph unicode="&#xe3;" horiz-adv-x="1150" d="M49 508q0 -102 39 -194.5t111 -163.5q72 -72 164 -111t194 -39t194.5 39t163.5 111q31 29 58 67v-219h102v1020h-102v-219q-27 39 -58 67q-72 72 -164 111t-194 39t-194.5 -39t-163.5 -111q-72 -72 -111 -164t-39 -194zM152 508q0 84 31.5 157.5t87 129t129 87 t157.5 31.5t157.5 -31.5t129 -87t87.5 -129t32 -157.5t-32 -158t-87.5 -129t-129 -87t-157.5 -32t-157.5 32t-129 87t-87 129t-31.5 158zM279 1128l8 50q12 88 78 137q33 25 71.5 31t75.5 -9q31 -10 54.5 -31.5t43.5 -39.5q16 -14 30.5 -27.5t31.5 -19.5q25 -8 51 8 q31 23 37 69l8 52l102 -17l-8 -49q-16 -90 -78 -137q-33 -25 -72.5 -31t-76.5 8q-31 12 -54.5 33t-41.5 39q-16 14 -30.5 27.5t-31.5 19.5q-29 10 -51 -8q-33 -23 -39 -70l-8 -51z" />
<glyph unicode="&#xe4;" horiz-adv-x="1150" d="M49 508q0 -102 39 -194.5t111 -163.5q72 -72 164 -111t194 -39t194.5 39t163.5 111q31 29 58 67v-219h102v1020h-102v-219q-27 39 -58 67q-72 72 -164 111t-194 39t-194.5 -39t-163.5 -111q-72 -72 -111 -164t-39 -194zM152 508q0 84 31.5 157.5t87 129t129 87 t157.5 31.5t157.5 -31.5t129 -87t87.5 -129t32 -157.5t-32 -158t-87.5 -129t-129 -87t-157.5 -32t-157.5 32t-129 87t-87 129t-31.5 158zM401 1194q0 27 18.5 46.5t43.5 19.5q27 0 45 -19.5t18 -46.5q0 -25 -18.5 -43t-44.5 -18q-25 0 -43.5 18t-18.5 43zM623 1194 q0 27 18 46.5t43 19.5q27 0 45.5 -19.5t18.5 -46.5q0 -25 -18.5 -43t-45.5 -18q-25 0 -43 18t-18 43z" />
<glyph unicode="&#xe5;" horiz-adv-x="1150" d="M49 508q0 -102 39 -194.5t111 -163.5q72 -72 164 -111t194 -39t194.5 39t163.5 111q31 29 58 67v-219h102v1020h-102v-219q-27 39 -58 67q-72 72 -164 111t-194 39t-194.5 -39t-163.5 -111q-72 -72 -111 -164t-39 -194zM152 508q0 84 31.5 157.5t87 129t129 87 t157.5 31.5t157.5 -31.5t129 -87t87.5 -129t32 -157.5t-32 -158t-87.5 -129t-129 -87t-157.5 -32t-157.5 32t-129 87t-87 129t-31.5 158zM399 1210q0 72 51.5 123t122.5 51q74 0 125.5 -51t51.5 -123q0 -37 -13.5 -68.5t-38 -55t-56.5 -38t-69 -14.5t-68.5 14.5t-55 38 t-37 55.5t-13.5 68zM502 1210q0 -31 21.5 -52t49.5 -21q31 0 52.5 21.5t21.5 51.5q0 29 -21.5 50.5t-52.5 21.5q-29 0 -50 -21.5t-21 -50.5z" />
<glyph unicode="&#xe6;" horiz-adv-x="1990" d="M49 508q0 102 39 194.5t111 163.5q72 72 164 111t194 39t194.5 -39t163.5 -111q31 -29 58 -67v219h102v-250q8 16 16.5 29.5t18.5 27.5q94 133 250 181q90 27 185 13.5t175 -61.5q80 -47 135.5 -125.5t73.5 -170.5l13 -62h-818q-4 -16 -6 -33.5t-2 -34.5 q-2 -82 24.5 -157.5t78.5 -134.5q59 -66 143 -103q41 -16 85 -25.5t87 -5.5q86 2 170 46q80 43 133 114l31 41l82 -61l-31 -41q-66 -90 -168 -144q-102 -53 -213 -57q-6 -2 -18 -2q-100 0 -199 41q-51 23 -97 55.5t-81 73.5q-39 41 -68 96v-270h-102v219q-27 -39 -58 -67 q-72 -72 -164 -111t-194 -39t-194.5 39t-163.5 111q-72 72 -111 164t-39 194zM152 508q0 -84 31.5 -158t87 -129t129 -87t157.5 -32t157.5 32t129 87t87.5 129t32 158t-32 157.5t-87.5 129t-129 87t-157.5 31.5t-157.5 -31.5t-129 -87t-87 -129t-31.5 -157.5zM1157 702h653 q-23 53 -59.5 96.5t-83.5 71.5q-84 50 -182 50q-51 0 -96 -13q-59 -16 -109.5 -53t-87.5 -88q-10 -16 -18.5 -31.5t-16.5 -32.5z" />
<glyph unicode="&#xe7;" horiz-adv-x="985" d="M55 557q12 141 99 256q86 115 219 168t274 31q141 -23 250 -115l41 -33l-68 -78l-39 33q-90 74 -200 92q-113 18 -219 -24q-106 -45 -176 -135q-33 -45 -53.5 -96.5t-24.5 -108.5q-12 -125 47 -232q29 -53 73 -96t97 -72t114.5 -40t122.5 -3q125 12 219 95l39 32l68 -77 l-41 -33q-57 -49 -128 -80t-146 -39q-14 -2 -27.5 -3t-28.5 -1h-4v-55h129l13 -11q29 -16 40 -51q12 -31 13 -63q-4 -41 -23 -76q-27 -39 -67 -45l-4 -2h-203v102h188q2 4 4 9.5t2 13.5t-4 20h-190v168q-72 16 -133 49q-137 70 -213 209q-76 135 -60 291z" />
<glyph unicode="&#xe8;" horiz-adv-x="1026" d="M51 535q2 78 26.5 152.5t69.5 137.5q94 133 250 181q90 27 185.5 13.5t175.5 -61.5q80 -47 135 -125.5t74 -170.5l12 -62h-817q-4 -16 -6 -33.5t-2 -34.5q-2 -82 24.5 -157.5t77.5 -134.5q59 -66 143 -103q41 -16 85 -25.5t87 -5.5q86 2 170 46q80 43 133 114l31 41 l82 -61l-31 -41q-66 -90 -168 -144q-102 -53 -213 -57q-6 -2 -18 -2q-100 0 -199 41q-51 23 -97 55.5t-81 73.5q-66 72 -99.5 167t-29.5 196zM195 702h653q-23 53 -59.5 96.5t-83.5 71.5q-85 50 -183 50q-51 0 -96 -13q-59 -16 -109.5 -53t-87.5 -88q-10 -16 -18 -31.5 t-16 -32.5zM322 1315l57 86l323 -219l-55 -84z" />
<glyph unicode="&#xe9;" horiz-adv-x="1026" d="M51 535q2 78 26.5 152.5t69.5 137.5q94 133 250 181q90 27 185.5 13.5t175.5 -61.5q80 -47 135 -125.5t74 -170.5l12 -62h-817q-4 -16 -6 -33.5t-2 -34.5q-2 -82 24.5 -157.5t77.5 -134.5q59 -66 143 -103q41 -16 85 -25.5t87 -5.5q86 2 170 46q80 43 133 114l31 41 l82 -61l-31 -41q-66 -90 -168 -144q-102 -53 -213 -57q-6 -2 -18 -2q-100 0 -199 41q-51 23 -97 55.5t-81 73.5q-66 72 -99.5 167t-29.5 196zM195 702h653q-23 53 -59.5 96.5t-83.5 71.5q-85 50 -183 50q-51 0 -96 -13q-59 -16 -109.5 -53t-87.5 -88q-10 -16 -18 -31.5 t-16 -32.5zM322 1182l323 219l57 -86l-325 -217z" />
<glyph unicode="&#xea;" horiz-adv-x="1026" d="M51 535q2 78 26.5 152.5t69.5 137.5q94 133 250 181q90 27 185.5 13.5t175.5 -61.5q80 -47 135 -125.5t74 -170.5l12 -62h-817q-4 -16 -6 -33.5t-2 -34.5q-2 -82 24.5 -157.5t77.5 -134.5q59 -66 143 -103q41 -16 85 -25.5t87 -5.5q86 2 170 46q80 43 133 114l31 41 l82 -61l-31 -41q-66 -90 -168 -144q-102 -53 -213 -57q-6 -2 -18 -2q-100 0 -199 41q-51 23 -97 55.5t-81 73.5q-66 72 -99.5 167t-29.5 196zM195 702h653q-23 53 -59.5 96.5t-83.5 71.5q-85 50 -183 50q-51 0 -96 -13q-59 -16 -109.5 -53t-87.5 -88q-10 -16 -18 -31.5 t-16 -32.5zM256 1186l223 192h68l221 -192l-66 -78l-190 164l-188 -164z" />
<glyph unicode="&#xeb;" horiz-adv-x="1026" d="M51 535q2 78 26.5 152.5t69.5 137.5q94 133 250 181q90 27 185.5 13.5t175.5 -61.5q80 -47 135 -125.5t74 -170.5l12 -62h-817q-4 -16 -6 -33.5t-2 -34.5q-2 -82 24.5 -157.5t77.5 -134.5q59 -66 143 -103q41 -16 85 -25.5t87 -5.5q86 2 170 46q80 43 133 114l31 41 l82 -61l-31 -41q-66 -90 -168 -144q-102 -53 -213 -57q-6 -2 -18 -2q-100 0 -199 41q-51 23 -97 55.5t-81 73.5q-66 72 -99.5 167t-29.5 196zM195 702h653q-23 53 -59.5 96.5t-83.5 71.5q-85 50 -183 50q-51 0 -96 -13q-59 -16 -109.5 -53t-87.5 -88q-10 -16 -18 -31.5 t-16 -32.5zM340 1194q0 27 18.5 46.5t42.5 19.5q27 0 45.5 -19.5t18.5 -46.5q0 -25 -18.5 -43t-45.5 -18q-25 0 -43 18t-18 43zM561 1194q0 27 18.5 46.5t43.5 19.5q27 0 45 -19.5t18 -46.5q0 -25 -18.5 -43t-44.5 -18q-25 0 -43.5 18t-18.5 43z" />
<glyph unicode="&#xec;" horiz-adv-x="444" d="M2 1315l57 86l324 -219l-55 -84zM283 4v1012h102v-1012h-102z" />
<glyph unicode="&#xed;" horiz-adv-x="442" d="M55 4v1012h103v-1012h-103zM59 1182l324 219l57 -86l-325 -217z" />
<glyph unicode="&#xee;" horiz-adv-x="548" d="M18 1186l224 192h67l221 -192l-65 -78l-191 164l-188 -164zM221 4v1012h103v-1012h-103z" />
<glyph unicode="&#xef;" horiz-adv-x="370" d="M12 1194q0 27 18.5 46.5t43.5 19.5q27 0 45 -19.5t18 -46.5q0 -25 -18.5 -43t-44.5 -18q-25 0 -43.5 18t-18.5 43zM133 4v1012h103v-1012h-103zM233 1194q0 27 18.5 46.5t43.5 19.5q27 0 45 -19.5t18 -46.5q0 -25 -18 -43t-45 -18q-25 0 -43.5 18t-18.5 43z" />
<glyph unicode="&#xf0;" horiz-adv-x="1075" d="M43 487q0 98 36 185.5t105 154.5q68 70 156 106t186 36q96 0 184.5 -36t155.5 -106q6 -6 12.5 -12t10.5 -12q-10 35 -21.5 65.5t-25.5 61.5q-51 100 -129 180t-176 133l-123 -170l-82 62l108 151q-86 31 -180 41t-182 -2l-2 100q109 16 217 2t211 -55l112 158l82 -62 l-102 -141q109 -61 195 -151.5t141 -200.5q63 -125 80 -268q8 -74 8 -151t-15.5 -148.5t-49 -139t-89.5 -123.5q-68 -68 -155.5 -104.5t-184.5 -36.5q-98 0 -186 37t-156 104q-70 70 -105.5 157t-35.5 185zM145 487q0 -80 30 -148.5t82 -120.5t120.5 -82t148.5 -30 q78 0 147.5 30t121 82t81 121t29.5 148q0 78 -29.5 148t-81 121t-121 80.5t-147.5 29.5q-80 0 -148.5 -29.5t-120.5 -80.5t-82 -121t-30 -148z" />
<glyph unicode="&#xf1;" horiz-adv-x="952" d="M74 2h102v746l8 8q55 59 133 93t158 36q88 4 156 -31q37 -16 65.5 -43t46.5 -57q27 -47 33 -105.5t8 -124.5q6 -236 0 -469v-53h105v51q2 235 0 473q-2 74 -11.5 144.5t-43.5 132.5q-27 47 -68 84t-90 59q-94 43 -205 41q-47 -2 -97 -12t-98 -33q-27 -12 -52 -26.5 t-48 -30.5v137h-102v-1020zM180 1128l8 50q12 88 78 137q33 25 72 31t76 -9q31 -10 54.5 -31.5t43.5 -39.5q16 -14 30.5 -27.5t30.5 -19.5q25 -8 52 8q31 23 37 69l8 52l102 -17l-8 -49q-16 -90 -78 -137q-33 -25 -73 -31t-76 8q-31 12 -54.5 33t-42.5 39q-16 14 -30.5 27.5 t-30.5 19.5q-29 10 -51 -8q-33 -23 -39 -70l-8 -51z" />
<glyph unicode="&#xf2;" horiz-adv-x="1122" d="M51 514q0 104 39 196.5t111 163.5q72 72 164 111t196 39q102 0 195.5 -39t165.5 -111t110.5 -164t38.5 -196q0 -102 -39 -195.5t-110 -164.5q-72 -72 -165.5 -111t-195.5 -39q-104 0 -196.5 39t-163.5 111q-72 72 -111 165t-39 195zM154 514q0 -84 31.5 -158.5t87 -130 t130 -87.5t158.5 -32t158 32t129 87.5t88 130t33 158.5t-33 159t-88 130t-129 87t-158 32t-158.5 -32t-130 -87t-87 -130t-31.5 -159zM371 1315l57 86l324 -219l-56 -84z" />
<glyph unicode="&#xf3;" horiz-adv-x="1122" d="M51 514q0 104 39 196.5t111 163.5q72 72 164 111t196 39q102 0 195.5 -39t165.5 -111t110.5 -164t38.5 -196q0 -102 -39 -195.5t-110 -164.5q-72 -72 -165.5 -111t-195.5 -39q-104 0 -196.5 39t-163.5 111q-72 72 -111 165t-39 195zM154 514q0 -84 31.5 -158.5t87 -130 t130 -87.5t158.5 -32t158 32t129 87.5t88 130t33 158.5t-33 159t-88 130t-129 87t-158 32t-158.5 -32t-130 -87t-87 -130t-31.5 -159zM371 1182l323 219l58 -86l-326 -217z" />
<glyph unicode="&#xf4;" horiz-adv-x="1122" d="M51 514q0 104 39 196.5t111 163.5q72 72 164 111t196 39q102 0 195.5 -39t165.5 -111t110.5 -164t38.5 -196q0 -102 -39 -195.5t-110 -164.5q-72 -72 -165.5 -111t-195.5 -39q-104 0 -196.5 39t-163.5 111q-72 72 -111 165t-39 195zM154 514q0 -84 31.5 -158.5t87 -130 t130 -87.5t158.5 -32t158 32t129 87.5t88 130t33 158.5t-33 159t-88 130t-129 87t-158 32t-158.5 -32t-130 -87t-87 -130t-31.5 -159zM305 1186l223 192h68l221 -192l-65 -78l-191 164l-188 -164z" />
<glyph unicode="&#xf5;" horiz-adv-x="1122" d="M51 514q0 104 39 196.5t111 163.5q72 72 164 111t196 39q102 0 195.5 -39t165.5 -111t110.5 -164t38.5 -196q0 -102 -39 -195.5t-110 -164.5q-72 -72 -165.5 -111t-195.5 -39q-104 0 -196.5 39t-163.5 111q-72 72 -111 165t-39 195zM154 514q0 -84 31.5 -158.5t87 -130 t130 -87.5t158.5 -32t158 32t129 87.5t88 130t33 158.5t-33 159t-88 130t-129 87t-158 32t-158.5 -32t-130 -87t-87 -130t-31.5 -159zM264 1128l8 50q12 88 78 137q33 25 72 31t76 -9q31 -10 54 -31.5t44 -39.5q16 -14 30.5 -27.5t30.5 -19.5q25 -8 52 8q31 23 36 69l9 52 l102 -17l-8 -49q-16 -90 -78 -137q-33 -25 -73 -31t-76 8q-31 12 -54.5 33t-42.5 39q-16 14 -30.5 27.5t-30.5 19.5q-29 10 -51 -8q-33 -23 -39 -70l-8 -51z" />
<glyph unicode="&#xf6;" horiz-adv-x="1122" d="M51 514q0 104 39 196.5t111 163.5q72 72 164 111t196 39q102 0 195.5 -39t165.5 -111t110.5 -164t38.5 -196q0 -102 -39 -195.5t-110 -164.5q-72 -72 -165.5 -111t-195.5 -39q-104 0 -196.5 39t-163.5 111q-72 72 -111 165t-39 195zM154 514q0 -84 31.5 -158.5t87 -130 t130 -87.5t158.5 -32t158 32t129 87.5t88 130t33 158.5t-33 159t-88 130t-129 87t-158 32t-158.5 -32t-130 -87t-87 -130t-31.5 -159zM387 1194q0 27 18.5 46.5t43.5 19.5q27 0 45 -19.5t18 -46.5q0 -25 -18.5 -43t-44.5 -18q-25 0 -43.5 18t-18.5 43zM608 1194 q0 27 18.5 46.5t43.5 19.5q27 0 45 -19.5t18 -46.5q0 -25 -18.5 -43t-44.5 -18q-25 0 -43.5 18t-18.5 43z" />
<glyph unicode="&#xf8;" horiz-adv-x="1122" d="M51 514q0 104 39 196.5t111 163.5q72 72 164 111t196 39q86 0 168 -29l94 201l92 -43l-94 -201q57 -35 101 -78q72 -72 110.5 -164t38.5 -196q0 -102 -39 -195.5t-110 -164.5q-72 -72 -165.5 -111t-195.5 -39q-90 0 -168 27l-94 -201l-92 43l94 201q-53 33 -100 80 q-72 72 -111 165t-39 195zM154 514q0 -111 52 -202t138 -144l342 733q-59 21 -125 21q-84 0 -158.5 -32t-130 -87t-87 -130t-31.5 -159zM436 125q57 -19 125 -19q84 0 158 32t129 87.5t88 130t33 158.5q0 111 -52.5 200t-138.5 144z" />
<glyph unicode="&#xf9;" horiz-adv-x="958" d="M66 718q0 130 2 249v51h104v-53q-4 -117 -4 -247t4 -247q2 -66 8 -124t33 -105q18 -31 47 -57.5t66 -43.5q68 -35 155 -30q80 2 158 35.5t133 93.5l8 8v770h103v-1012h-103v105q-23 -16 -48 -30.5t-52 -27.5q-47 -23 -97.5 -33t-97.5 -12q-111 -2 -204 41 q-49 23 -90 59.5t-68 84.5q-35 61 -44 131.5t-11 144.5q-2 119 -2 249zM289 1315l57 86l324 -219l-56 -84z" />
<glyph unicode="&#xfa;" horiz-adv-x="958" d="M66 718q0 -130 2 -249q2 -74 11 -144.5t44 -131.5q27 -47 67.5 -84t90.5 -60q94 -43 204 -41q47 2 97.5 12.5t97.5 32.5q27 12 52.5 26.5t47.5 31.5v-105h103v1012h-103v-770l-8 -8q-55 -59 -133 -93t-158 -36q-88 -4 -155 30q-37 16 -66 43t-47 58q-27 47 -33 105.5 t-8 123.5q-4 117 -4 247t4 247v53h-104v-51q-2 -119 -2 -249zM289 1182l323 219l58 -86l-326 -217z" />
<glyph unicode="&#xfb;" horiz-adv-x="958" d="M66 718q0 -130 2 -249q2 -74 11 -144.5t44 -131.5q27 -47 67.5 -84t90.5 -60q94 -43 204 -41q47 2 97.5 12.5t97.5 32.5q27 12 52.5 26.5t47.5 31.5v-105h103v1012h-103v-770l-8 -8q-55 -59 -133 -93t-158 -36q-88 -4 -155 30q-37 16 -66 43t-47 58q-27 47 -33 105.5 t-8 123.5q-4 117 -4 247t4 247v53h-104v-51q-2 -119 -2 -249zM223 1186l223 192h68l221 -192l-65 -78l-191 164l-188 -164z" />
<glyph unicode="&#xfc;" horiz-adv-x="958" d="M66 718q0 -130 2 -249q2 -74 11 -144.5t44 -131.5q27 -47 67.5 -84t90.5 -60q94 -43 204 -41q47 2 97.5 12.5t97.5 32.5q27 12 52.5 26.5t47.5 31.5v-105h103v1012h-103v-770l-8 -8q-55 -59 -133 -93t-158 -36q-88 -4 -155 30q-37 16 -66 43t-47 58q-27 47 -33 105.5 t-8 123.5q-4 117 -4 247t4 247v53h-104v-51q-2 -119 -2 -249zM305 1194q0 27 18.5 46.5t43.5 19.5q27 0 45 -19.5t18 -46.5q0 -25 -18.5 -43t-44.5 -18q-25 0 -43.5 18t-18.5 43zM526 1194q0 27 18.5 46.5t43.5 19.5q27 0 45 -19.5t18 -46.5q0 -25 -18.5 -43t-44.5 -18 q-25 0 -43.5 18t-18.5 43z" />
<glyph unicode="&#xfd;" horiz-adv-x="983" d="M66 -10v-51q-4 -86 27.5 -168t90.5 -144q59 -63 138 -99t165 -40h15q63 0 124.5 18.5t114.5 53.5q117 74 168 202l4 9v1249h-102v-729l-6 -4q-109 -63 -237 -78.5t-249 20.5q-23 8 -39 14.5t-30 16.5q-31 14 -51 43q-16 25 -27 62q-4 18 -4 36.5v40.5v578h-102v-578 q0 -25 1 -49t5 -49q12 -53 45 -100q33 -45 80 -72q37 -23 92 -41q49 -16 100 -22.5t105 -6.5q168 0 317 72v-383q-41 -92 -125 -147q-88 -57 -194 -54q-66 4 -127.5 32t-106.5 75t-69.5 109.5t-20.5 127.5v56h-102zM301 1182l324 219l57 -86l-326 -217z" />
<glyph unicode="&#xfe;" horiz-adv-x="1105" d="M74 -313v1581h102v-465q27 39 57 67q72 72 164 111t195 39q102 0 194.5 -39t163.5 -111q72 -72 111 -164t39 -194t-39 -194.5t-111 -163.5q-72 -72 -164 -111t-194 -39t-194.5 39t-164.5 111q-31 29 -57 67v-534h-102zM186 512q0 -84 32 -157.5t87 -129t129 -87.5 t158 -32t157.5 32t129 87.5t87 129t31.5 157.5t-31.5 157.5t-87 129t-129 87.5t-157.5 32t-158 -32t-129 -87.5t-87 -129t-32 -157.5z" />
<glyph unicode="&#xff;" horiz-adv-x="983" d="M66 -10v-51q-4 -86 27.5 -168t90.5 -144q59 -63 138 -99t165 -40h15q63 0 124.5 18.5t114.5 53.5q117 74 168 202l4 9v1249h-102v-729l-6 -4q-109 -63 -237 -78.5t-249 20.5q-23 8 -39 14.5t-30 16.5q-31 14 -51 43q-16 25 -27 62q-4 18 -4 36.5v40.5v578h-102v-578 q0 -25 1 -49t5 -49q12 -53 45 -100q33 -45 80 -72q37 -23 92 -41q49 -16 100 -22.5t105 -6.5q168 0 317 72v-383q-41 -92 -125 -147q-88 -57 -194 -54q-66 4 -127.5 32t-106.5 75t-69.5 109.5t-20.5 127.5v56h-102zM317 1194q0 27 18.5 46.5t43.5 19.5q27 0 45 -19.5 t18 -46.5q0 -25 -18 -43t-45 -18q-25 0 -43.5 18t-18.5 43zM539 1194q0 27 18 46.5t43 19.5q27 0 45.5 -19.5t18.5 -46.5q0 -25 -18.5 -43t-45.5 -18q-25 0 -43 18t-18 43z" />
<glyph unicode="&#x152;" horiz-adv-x="2066" d="M51 713q0 141 42 270t122 231q82 102 184 156q111 57 230 57q117 0 227 -57q102 -53 184 -156q59 -78 101 -174v387h913v-102h-811v-559h811v-102h-811v-560h811v-102h-913v383q-20 -47 -45 -91t-56 -83q-82 -102 -184 -156q-110 -57 -227 -57q-119 0 -230 57 q-102 53 -184 156q-80 102 -122 231t-42 271zM154 713q0 -127 36.5 -239t101 -194.5t151.5 -131t186 -48.5q98 0 184 48.5t150.5 131t101.5 194.5t37 239t-37 238.5t-101.5 194.5t-150.5 131t-184 48t-185.5 -48t-152 -131t-101 -194.5t-36.5 -238.5z" />
<glyph unicode="&#x153;" horiz-adv-x="1970" d="M51 514q0 104 39 196.5t111 163.5q72 72 164 111t196 39q102 0 195.5 -39t165.5 -111q35 -35 59.5 -72.5t44.5 -78.5q10 27 25.5 52.5t31.5 49.5q94 133 250 181q90 27 185.5 13.5t175.5 -61.5q80 -47 135 -125.5t74 -170.5l12 -62h-817q-4 -16 -6 -33.5t-2 -34.5 q-2 -82 24.5 -157.5t77.5 -134.5q59 -66 143 -103q41 -16 85 -25.5t87 -5.5q86 2 170 46q80 43 133 114l31 41l82 -61l-31 -41q-66 -90 -168 -144q-102 -53 -213 -57q-6 -2 -18 -2q-100 0 -199 41q-51 23 -97 55.5t-81 73.5q-57 66 -88 139q-41 -92 -106 -157 q-72 -72 -165 -111t-196 -39q-104 0 -196.5 39t-163.5 111q-72 72 -111 165t-39 195zM154 514q0 -84 31.5 -158.5t87 -130t130 -87.5t158.5 -32t158 32t129 87.5t88 130t33 158.5t-33 159t-88 130t-129 87t-158 32t-158.5 -32t-130 -87t-87 -130t-31.5 -159zM1130 702h654 q-23 53 -59.5 96.5t-84.5 71.5q-84 50 -182 50q-51 0 -96 -13q-59 -16 -109.5 -53t-87.5 -88q-10 -16 -18 -31.5t-17 -32.5z" />
<glyph unicode="&#x178;" horiz-adv-x="1236" d="M20 1448l547 -764v-686h103v686l547 764h-125l-474 -662l-475 662h-123zM444 1604q0 27 18.5 46t43.5 19q27 0 45 -19t18 -46q0 -25 -18.5 -43.5t-44.5 -18.5q-25 0 -43.5 18.5t-18.5 43.5zM666 1604q0 27 18 46t43 19q27 0 45.5 -19t18.5 -46q0 -25 -18.5 -43.5 t-45.5 -18.5q-25 0 -43 18.5t-18 43.5z" />
<glyph unicode="&#x2c6;" horiz-adv-x="585" d="M37 1186l223 192h68l221 -192l-66 -78l-190 164l-189 -164z" />
<glyph unicode="&#x2dc;" horiz-adv-x="700" d="M55 1128l8 50q12 88 78 137q33 25 72 31t76 -9q31 -10 54.5 -31.5t43.5 -39.5q16 -14 30.5 -27.5t31.5 -19.5q25 -8 51 8q31 23 37 69l8 52l102 -17l-8 -49q-16 -90 -78 -137q-33 -25 -72.5 -31t-76.5 8q-31 12 -54.5 33t-42.5 39q-16 14 -30.5 27.5t-30.5 19.5 q-29 10 -51 -8q-33 -23 -39 -70l-8 -51z" />
<glyph unicode="&#x2000;" horiz-adv-x="905" />
<glyph unicode="&#x2001;" horiz-adv-x="1810" />
<glyph unicode="&#x2002;" horiz-adv-x="905" />
<glyph unicode="&#x2003;" horiz-adv-x="1810" />
<glyph unicode="&#x2004;" horiz-adv-x="603" />
<glyph unicode="&#x2005;" horiz-adv-x="452" />
<glyph unicode="&#x2006;" horiz-adv-x="301" />
<glyph unicode="&#x2007;" horiz-adv-x="301" />
<glyph unicode="&#x2008;" horiz-adv-x="226" />
<glyph unicode="&#x2009;" horiz-adv-x="362" />
<glyph unicode="&#x200a;" horiz-adv-x="100" />
<glyph unicode="&#x2010;" horiz-adv-x="634" d="M74 516v102h485v-102h-485z" />
<glyph unicode="&#x2011;" horiz-adv-x="634" d="M74 516v102h485v-102h-485z" />
<glyph unicode="&#x2012;" horiz-adv-x="634" d="M74 516v102h485v-102h-485z" />
<glyph unicode="&#x2013;" horiz-adv-x="1173" d="M74 516v102h1024v-102h-1024z" />
<glyph unicode="&#x2014;" horiz-adv-x="2197" d="M74 516v102h2048v-102h-2048z" />
<glyph unicode="&#x2018;" horiz-adv-x="290" d="M33 885l96 401l98 -26l-71 -271q37 -8 62.5 -36.5t25.5 -67.5q0 -45 -32 -76t-75 -31t-73.5 31t-30.5 76z" />
<glyph unicode="&#x2019;" horiz-adv-x="290" d="M47 1180q0 45 32 75.5t75 30.5t73.5 -30.5t30.5 -75.5l-96 -402l-99 27l72 270q-37 8 -62.5 37t-25.5 68z" />
<glyph unicode="&#x201a;" horiz-adv-x="290" d="M47 123q0 45 32 75.5t75 30.5t73.5 -30.5t30.5 -75.5l-96 -402l-99 27l72 270q-37 8 -62.5 37t-25.5 68z" />
<glyph unicode="&#x201c;" horiz-adv-x="606" d="M55 885l97 401l98 -26l-72 -271q37 -8 62.5 -36.5t25.5 -67.5q0 -45 -31.5 -76t-74.5 -31t-74 31t-31 76zM334 885l96 401l98 -26l-71 -271q37 -8 62.5 -36.5t25.5 -67.5q0 -45 -32 -76t-75 -31t-73.5 31t-30.5 76z" />
<glyph unicode="&#x201d;" horiz-adv-x="604" d="M61 1180q0 45 32 75.5t75 30.5t73.5 -30.5t30.5 -75.5l-96 -402l-98 27l72 270q-37 8 -63 37t-26 68zM340 1180q0 45 31.5 75.5t74.5 30.5t74 -30.5t31 -75.5l-96 -402l-99 27l72 270q-37 8 -62.5 37t-25.5 68z" />
<glyph unicode="&#x201e;" horiz-adv-x="604" d="M61 123q0 45 32 75.5t75 30.5t73.5 -30.5t30.5 -75.5l-96 -402l-98 27l72 270q-37 8 -63 37t-26 68zM340 123q0 45 31.5 75.5t74.5 30.5t74 -30.5t31 -75.5l-96 -402l-99 27l72 270q-37 8 -62.5 37t-25.5 68z" />
<glyph unicode="&#x202f;" horiz-adv-x="362" />
<glyph unicode="&#x205f;" horiz-adv-x="452" />
<glyph unicode="&#x20ac;" horiz-adv-x="1245" d="M39 508v102h61q-12 90 -4 174q2 16 3 33t5 33h-65v102h90q33 100 92 191q53 78 122 138t153 97q166 76 348 45q176 -35 315 -163l37 -37l-70 -74l-39 35q-55 55 -122.5 90t-139.5 47q-147 29 -288 -35q-68 -33 -127.5 -83t-104.5 -118q-20 -31 -37.5 -64.5t-29.5 -68.5 h624v-102h-653q-4 -18 -6 -37.5t-4 -38.5q-4 -41 -3 -82t7 -82h659v-102h-635q12 -47 35 -88q82 -164 227 -250q72 -41 152 -58.5t158 -7.5q80 10 154.5 46t133.5 96l39 35l70 -74l-37 -35q-72 -70 -162 -114t-186 -56q-16 -2 -34.5 -3t-37.5 -1q-160 0 -301 82 q-86 49 -153.5 126t-114.5 169q-31 59 -49 133h-82z" />
<glyph unicode="&#x25fc;" horiz-adv-x="1064" d="M0 0v1065h1065v-1065h-1065z" />
</font>
</defs>
</svg>
